<?xml version="1.0" encoding="utf-8"?>
<!-- Generator: Adobe Illustrator 24.1.0, SVG Export Plug-In . SVG Version: 6.00 Build 0)  -->
<svg version="1.1" id="Layer_1" xmlns="http://www.w3.org/2000/svg" xmlns:xlink="http://www.w3.org/1999/xlink" x="0px" y="0px"
	 viewBox="0 0 1000 1000" style="enable-background:new 0 0 1000 1000;" xml:space="preserve">
<style type="text/css">
	.st0{fill:#2D2C2C;}
	.st1{fill:#FFB380;stroke:#FFB380;stroke-width:1.2782;stroke-miterlimit:10;}
	.st2{fill:#FFB380;stroke:#FFB380;stroke-width:2.8161;stroke-miterlimit:10;}
	.st3{fill:#FFB380;stroke:#FFB380;stroke-width:4.2241;stroke-miterlimit:10;}
	.st4{fill:#FFB380;}
	.st5{fill:#FFB380;stroke:#FFB380;stroke-width:2.8981;stroke-miterlimit:10;}
	.st6{fill:#FFB380;stroke:#FFB380;stroke-width:2.3545;stroke-miterlimit:10;}
	.st7{fill:#FFFFFF;}
	.st8{fill:#FFFFFF;stroke:#000000;stroke-width:2.7475;stroke-miterlimit:10;}
	.st9{fill:#FFFFFF;stroke:#000000;stroke-width:4.1212;stroke-miterlimit:10;}
	.st10{fill:none;}
	.st11{fill:none;stroke:#000000;stroke-width:2.8275;stroke-miterlimit:10;}
	.st12{stroke:#000000;stroke-width:2.2971;stroke-miterlimit:10;}
	.st13{fill:#606060;}
	.st14{stroke:#000000;stroke-width:0.4607;stroke-miterlimit:10;}
</style>
<rect x="-2" y="-4" class="st0" width="1000" height="1007"/>
<g>
	<path class="st1" d="M419.61,272.9c0,0,41.52-4.15,81.65,76.12S475.83,475.9,475.83,475.9s-50.68,19.82-85.28-0.94
		s-56.74-35.27-62.28-61.92c-5.54-26.65-14.03-40.01-14.03-40.01s-26.48-45.72,2.08-82.61c28.56-36.89,68.58-31.69,68.58-31.69
		L419.61,272.9z"/>
	<g>
		<path class="st2" d="M306.24,671.78v38.37c-42.16,8.15-83.44,17.76-123.75,28.75l42.18-59l-42.18-34.15
			c26.85-7.32,54.14-14.04,81.82-20.11v56.67C278.17,678.48,292.13,674.96,306.24,671.78z"/>
		<path class="st2" d="M788.78,679.9l44.11,59c-42.16-11-85.34-20.6-129.44-28.75V671.6c14.66,3.29,29.17,6.96,43.55,10.95v-56.96
			c29.06,6.08,57.72,12.81,85.89,20.16L788.78,679.9z"/>
		<path class="st3" d="M747,596.66l-0.7,85.55c-14.38-4-28.19-7.32-42.85-10.62c-44.14-9.94-89.51-16.63-135.86-19.81
			c-2.04-0.14-4.07-0.27-6.13-0.39h-0.01c-11.8-0.73-23.66-1.22-35.57-1.49c-6.86-0.16-13.73-0.24-20.63-0.24
			c-20.44,0-40.75,0.69-60.86,2.03c-2.08,0.14-4.15,0.28-6.22,0.44c-9.94,0.73-19.83,1.63-29.67,2.69
			c-34.72,3.72-68.85,9.41-102.27,16.97c-14.11,3.18-27.64,6.59-41.49,10.43l-0.44-85.78c25.91-7.2,52.27-13.25,79.06-18.11
			c10.38-1.9,20.81-3.62,31.31-5.14c1.97-0.3,3.96-0.58,5.94-0.84c40.73-5.66,82.34-8.57,124.63-8.57c31.37,0,62.39,1.62,92.93,4.75
			c14.31,1.48,28.51,3.28,42.61,5.42C676.95,579.4,712.39,587.01,747,596.66z"/>
	</g>
	<g>
		<g>
			<path class="st1" d="M397.01,595.67c0.05,0.29-0.71,0.57-2.25,0.85c-1.9,0.35-3.02,0.81-3.35,1.37
				c-0.11,0.18-0.15,0.52-0.11,1.02c1.61,9.7,2.42,14.56,4.03,24.26c1.5,9.02-2.6,14.29-12.26,16.12
				c-4.96,0.94-9.06,0.37-12.36-1.73c-2.47-1.57-4.27-4.9-5.36-9.99c-1.86-8.69-2.78-13.04-4.64-21.74
				c-0.26-1.21-0.64-1.9-1.15-2.06c-0.51-0.17-1.98-0.07-4.4,0.31c-0.51,0.07-0.79-0.02-0.85-0.29c-0.08-0.34,0.29-0.6,1.11-0.78
				c0.22-0.05,0.33-0.07,0.54-0.12c0.41-0.09,0.75-0.16,1.02-0.22c1.68-0.37,2.52-0.55,4.21-0.9c3.99-0.8,6.96-1.42,8.84-1.81
				c2.51-0.52,3.54-0.69,3-0.59c0.57-0.11,0.86-0.17,1.43-0.27c0.77-0.15,1.19-0.03,1.27,0.35c0.06,0.34-0.61,0.64-2.01,0.92
				c-2,0.38-3,0.9-3.02,1.53c-0.01,0.43,0.03,0.84,0.1,1.22c1.68,8.51,2.52,12.76,4.2,21.27c0.61,3.07,1.08,5.02,1.35,5.82
				c0.81,2.35,1.94,4.03,3.44,4.88c1.85,1.05,4.06,1.35,6.64,0.87c2.92-0.54,4.92-1.75,6.01-3.66c1.32-2.3,1.57-6.06,0.69-11.28
				c-1.27-7.53-1.91-11.3-3.18-18.84c-0.06-0.34-0.13-0.78-0.22-1.31c-0.09-0.53-0.14-0.86-0.16-0.97
				c-0.17-0.99-0.63-1.57-1.34-1.77c-0.48-0.14-1.4-0.1-2.69,0.11c-1.6,0.26-2.47,0.16-2.55-0.26c-0.05-0.3,0.24-0.51,0.87-0.63
				c0.68-0.12,1.69-0.27,3.02-0.44c1.33-0.17,2.34-0.31,3.02-0.42c0.04-0.01,0.46-0.2,1.13-0.36c0.7-0.17,1.48-0.24,2.12-0.35
				c0.66-0.11,0.98-0.16,1.64-0.26C396.23,595.29,396.96,595.34,397.01,595.67z"/>
			<path class="st1" d="M458.97,628.02c0.03,0.36-0.76,0.6-2.36,0.72c-1.39,0.1-3.42,0.28-6.03,0.47c-1.93,0.14-3.29,0.24-4.02,0.34
				c-1.45,0.13-2.18,0.19-3.63,0.33c-1.17,0.11-1.75,0.17-2.92,0.28c-0.95,0.09-1.44-0.03-1.48-0.38c-0.03-0.27,0.08-0.43,0.31-0.5
				c0.23-0.06,1.01-0.2,2.29-0.34c0.68-0.08,1.02-0.29,0.98-0.67c-0.01-0.15-1.34-1.59-4.02-4.29c-4.3-4.33-6.49-6.48-10.93-10.74
				c-0.63-0.43-1.1-0.78-1.4-1.05c0.68,5.81,1.02,8.71,1.71,14.52c0.2,1.71,0.48,2.71,0.84,3s1.46,0.36,3.3,0.23
				c1.07-0.08,1.63,0.05,1.66,0.4s-0.33,0.56-1.11,0.64c-1.63,0.18-2.45,0.27-4.08,0.47c-2.72,0.32-5.5,0.66-8.34,1.03
				c-0.43,0.06-1.09,0.14-1.97,0.26c-0.88,0.12-1.82,0.25-2.81,0.38c-0.34,0.05-0.5,0.07-0.84,0.12c-0.69,0.1-1.06-0.03-1.11-0.37
				c-0.05-0.34,0.65-0.64,2.09-0.87c1.44-0.24,2.3-0.53,2.58-0.87c0.28-0.35,0.33-1.21,0.15-2.58c-1.46-11-2.92-22.01-4.38-33.01
				c-0.07-0.53-0.29-0.89-0.62-1.02c-0.46-0.18-1.48-0.15-2.99,0.06c-1.32,0.18-2.01,0.09-2.06-0.27c-0.05-0.32,0.25-0.53,0.89-0.62
				c3.33-0.39,4.99-0.58,8.32-0.93c0.09-0.01,0.37-0.05,0.82-0.1c0.5-0.06,0.96-0.12,1.37-0.17c1.69-0.28,2.54-0.42,4.24-0.69
				c1.13-0.13,1.69-0.2,2.82-0.33c0.5-0.06,1.05-0.12,1.65-0.18c0.55-0.06,0.84,0.08,0.88,0.43c0.03,0.27-0.5,0.48-1.58,0.64
				c-1.79,0.27-2.85,0.55-3.17,0.8c-0.31,0.25-0.4,0.95-0.27,2.1c0.71,6.07,1.07,9.11,1.78,15.18c1.1-0.98,4.66-5.25,11-12.66
				c2.82-3.3,4.23-5.35,4.15-6.15c-0.02-0.27-0.25-0.41-0.66-0.43c-0.42-0.02-1.59,0.06-3.51,0.25c-0.64,0.06-0.98-0.08-1.01-0.42
				c-0.04-0.38,0.5-0.61,1.6-0.68c1.21-0.12,1.82-0.18,3.03-0.29c0.09-0.01,0.3-0.03,0.62-0.06c0.41-0.04,0.78-0.07,1.1-0.1
				c2.84-0.26,4.25-0.38,7.09-0.6c0.64-0.05,0.98,0.1,1,0.44c0.03,0.39-0.32,0.61-1.06,0.67c-1.7,0.14-2.84,0.33-3.45,0.58
				s-1.31,0.77-2.11,1.58c-3.92,4.11-7.92,8.67-11.95,13.7c0.86,0.84,3.28,3.01,7.16,6.55c2.7,2.41,6.54,5.95,11.41,10.67
				c2.15,2.15,3.54,3.43,4.18,3.83c0.64,0.4,1.55,0.55,2.72,0.47C458.25,627.63,458.95,627.73,458.97,628.02z"/>
			<path class="st1" d="M497.79,587.36c0,0.29-0.78,0.46-2.34,0.52c-1.93,0.06-3.1,0.36-3.5,0.87c-0.13,0.16-0.22,0.49-0.26,0.99
				c0.17,9.83,0.26,14.75,0.43,24.59c0.16,9.15-4.65,13.75-14.43,14.14c-5.02,0.2-8.97-0.96-11.92-3.53
				c-2.2-1.92-3.49-5.47-3.82-10.67c-0.56-8.87-0.84-13.31-1.4-22.18c-0.08-1.23-0.36-1.97-0.83-2.21
				c-0.48-0.24-1.94-0.36-4.38-0.34c-0.51,0-0.77-0.14-0.79-0.41c-0.02-0.35,0.38-0.55,1.2-0.61c0.22-0.02,0.33-0.02,0.55-0.04
				c0.41-0.03,0.76-0.05,1.03-0.07c1.71-0.12,2.56-0.17,4.27-0.28c4.05-0.21,7.06-0.38,8.97-0.49c2.55-0.15,3.59-0.16,3.04-0.14
				c0.58-0.03,0.87-0.04,1.45-0.06c0.78-0.03,1.18,0.15,1.2,0.53c0.01,0.35-0.69,0.55-2.12,0.61c-2.02,0.09-3.09,0.45-3.19,1.07
				c-0.07,0.43-0.1,0.84-0.08,1.22c0.42,8.66,0.62,12.99,1.04,21.66c0.15,3.13,0.33,5.12,0.48,5.95c0.46,2.45,1.33,4.27,2.68,5.33
				c1.67,1.31,3.81,1.93,6.41,1.84c2.95-0.1,5.1-1.01,6.46-2.74c1.64-2.08,2.44-5.77,2.33-11.05c-0.16-7.64-0.23-11.46-0.39-19.1
				c-0.01-0.35-0.02-0.79-0.03-1.33c-0.01-0.54-0.02-0.87-0.02-0.98c-0.02-1-0.4-1.64-1.06-1.95c-0.45-0.21-1.36-0.3-2.67-0.28
				c-1.62,0.02-2.46-0.2-2.47-0.63c-0.01-0.31,0.31-0.47,0.95-0.49c0.69-0.02,1.7-0.02,3.04,0.01c1.34,0.03,2.35,0.04,3.04,0.02
				c0.05,0,0.49-0.13,1.17-0.19c0.72-0.07,1.5-0.02,2.14-0.03c0.66-0.01,0.99-0.01,1.66-0.02
				C497.07,586.88,497.78,587.04,497.79,587.36z"/>
			<path class="st1" d="M535.57,617.28c-0.12,2.4-1.05,4.41-2.78,6.06c-1.73,1.65-4.06,2.7-6.99,3.18c-2.32,0.38-4.49,0.6-6.53,0.62
				c-2.04,0.03-8.02-0.1-17.95-0.06c-1.39,0.01-2.21-0.01-2.47-0.04c-0.26-0.04-0.39-0.17-0.39-0.4c0-0.35,0.7-0.53,2.11-0.54
				c1.41-0.01,2.29-0.19,2.64-0.56c0.35-0.37,0.52-1.27,0.52-2.7c0-11.05,0-22.11,0-33.16c0-1.12-1.08-1.7-3.21-1.73
				c-1.63-0.03-2.44-0.18-2.45-0.48c0-0.33,0.5-0.5,1.51-0.5c0.97-0.01,1.91-0.01,2.83-0.01c6.63-0.01,9.94,0.02,16.57,0.17
				c10.63,0.23,15.8,3.59,15.53,9.7c-0.23,5.07-4.24,7.99-11.98,8.97c-0.06,0.09-0.08,0.14-0.14,0.23c4.5,0.94,7.58,2.09,9.27,3.4
				C534.42,611.6,535.71,614.22,535.57,617.28z M525.01,616.59c0.18-5.44-1.5-8.67-5.06-9.64c-1.41-0.38-3.44-0.6-6.09-0.64
				c-0.02,1.34-0.03,2.01-0.05,3.36c-0.01,0.97-0.08,2.33-0.19,4.11c-0.06,0.89-0.1,2.55-0.14,4.98c-0.06,4.17,0.04,6.39,0.29,6.66
				c0.34,0.43,1.31,0.66,2.92,0.69C522.03,626.21,524.8,623.07,525.01,616.59z M524.35,596.76c0.17-5.59-1.77-8.46-5.83-8.55
				c-1.44-0.03-2.41,0.01-2.91,0.12c-1,0.25-1.5,0.84-1.51,1.77c-0.09,6.11-0.14,9.17-0.23,15.28c3.91,0.06,6.6-0.47,8.09-1.63
				C523.44,602.6,524.24,600.28,524.35,596.76z"/>
			<path class="st1" d="M558.99,628.88c-0.03,0.33-0.32,0.47-0.88,0.42c-0.3-0.03-0.58-0.07-0.84-0.13
				c-2.59-0.33-4.81-0.56-6.67-0.69c-1.95-0.14-4.81-0.28-8.58-0.39c-1.26-0.04-2.19-0.07-2.8-0.1c-0.65-0.04-0.97-0.23-0.95-0.57
				c0.01-0.19,0.14-0.3,0.38-0.33c0.24-0.03,1.18,0.08,2.51,0.02c1.27-0.05,2.16-0.46,2.41-0.93c0.25-0.47,0.45-2.01,0.61-4.63
				c0.69-11.12,1.03-16.67,1.72-27.79c0.05-0.73,0.11-1.47,0.13-2.14c0.02-0.67-0.01-1.02-0.01-0.99c0.06-0.96-1.06-1.52-3.35-1.65
				c-1.29-0.07-1.92-0.24-1.91-0.51c0.01-0.27,0.11-0.42,0.3-0.45c0.19-0.03,0.78-0.02,1.8,0.04c-0.46-0.03,0.37,0.02,2.48,0.15
				c2.11,0.13,3.93,0.25,5.45,0.35c1.41,0.1,2.11,0.15,3.51,0.25c0.73,0.05,1.78,0.13,3.14,0.24c1.35,0.11,2.31,0.18,2.86,0.23
				c0.28,0.02,0.41,0.03,0.69,0.06c0.6,0.05,0.88,0.22,0.86,0.51c-0.02,0.22-0.13,0.35-0.34,0.38c-0.21,0.04-0.93,0.01-2.11-0.04
				c-1.41-0.05-2.32,0.14-2.67,0.54c-0.12,0.43-0.17,0.65-0.29,1.08c-0.84,10.85-1.67,21.71-2.51,32.56c-0.13,1.65,0,2.65,0.39,2.99
				c0.39,0.34,1.85,0.6,4.14,0.97C558.83,628.4,559.02,628.59,558.99,628.88z M563.15,577.67c-0.3,0.21-0.52,0.34-0.67,0.41
				c-2.43,1.51-4.84,3.01-7.24,4.51c-3.57,2.23-5.37,3.36-5.46,3.35c-0.18-0.01-0.27-0.1-0.26-0.25c0.01-0.12,0.85-1.67,2.55-4.64
				c0.59-1.04,1.31-2.4,2.19-4.08c1.31,0.09,3.48,0.25,6.52,0.5C561.72,577.55,562.2,577.59,563.15,577.67z"/>
			<path class="st1" d="M606.11,634.58c-0.06,0.36-0.88,0.41-2.47,0.16c-1.38-0.21-3.4-0.5-6-0.91c-1.91-0.3-3.26-0.51-4-0.57
				c-1.45-0.2-2.17-0.3-3.62-0.5c-1.16-0.16-1.74-0.23-2.91-0.38c-0.95-0.12-1.4-0.35-1.36-0.7c0.03-0.27,0.17-0.41,0.41-0.41
				c0.24-0.01,1.04,0.03,2.31,0.18c0.68,0.08,1.06-0.05,1.11-0.43c0.02-0.15-0.95-1.85-2.96-5.08c-3.22-5.19-4.87-7.77-8.23-12.92
				c-0.52-0.56-0.89-1.01-1.12-1.34c-0.64,5.81-0.96,8.72-1.61,14.53c-0.19,1.72-0.14,2.75,0.14,3.11c0.28,0.36,1.34,0.68,3.17,0.97
				c1.06,0.17,1.57,0.42,1.53,0.76c-0.04,0.34-0.45,0.47-1.23,0.38c-1.63-0.19-2.45-0.28-4.08-0.46c-2.72-0.3-5.5-0.59-8.36-0.87
				c-0.43-0.04-1.09-0.11-1.98-0.19c-0.89-0.08-1.83-0.17-2.82-0.26c-0.34-0.03-0.51-0.05-0.84-0.08c-0.69-0.06-1.02-0.26-0.99-0.61
				c0.03-0.35,0.77-0.48,2.23-0.38c1.45,0.09,2.36,0.01,2.71-0.27c0.35-0.28,0.6-1.1,0.73-2.48c1.06-11.05,2.11-22.1,3.17-33.15
				c0.05-0.54-0.08-0.93-0.38-1.14c-0.41-0.28-1.41-0.48-2.92-0.62c-1.33-0.12-1.98-0.36-1.94-0.73c0.03-0.32,0.36-0.46,1.01-0.4
				c3.33,0.37,4.99,0.56,8.31,0.96c0.09,0.01,0.37,0.04,0.83,0.08c0.5,0.05,0.96,0.1,1.38,0.14c1.71,0.11,2.57,0.17,4.28,0.29
				c1.13,0.12,1.69,0.19,2.82,0.32c0.5,0.06,1.05,0.12,1.65,0.19c0.55,0.06,0.8,0.27,0.76,0.61c-0.03,0.27-0.6,0.35-1.68,0.27
				c-1.81-0.14-2.9-0.11-3.26,0.06c-0.36,0.17-0.61,0.84-0.73,1.99c-0.67,6.08-1.01,9.11-1.68,15.19c1.29-0.71,5.72-4.06,13.57-9.86
				c3.49-2.58,5.33-4.26,5.43-5.06c0.04-0.27-0.15-0.46-0.55-0.57c-0.4-0.11-1.56-0.3-3.48-0.55c-0.64-0.08-0.94-0.3-0.89-0.64
				c0.05-0.38,0.62-0.48,1.71-0.3c1.21,0.16,1.81,0.24,3.02,0.4c0.09,0.01,0.3,0.04,0.62,0.08c0.41,0.06,0.78,0.11,1.1,0.15
				c2.82,0.39,4.24,0.59,7.06,1.01c0.64,0.09,0.93,0.32,0.88,0.66c-0.06,0.38-0.45,0.52-1.18,0.41c-1.69-0.25-2.85-0.32-3.49-0.22
				s-1.45,0.46-2.42,1.06c-4.75,3.12-9.68,6.67-14.74,10.65c0.65,1.01,2.52,3.67,5.51,7.99c2.09,2.96,5.04,7.27,8.73,12.97
				c1.62,2.58,2.68,4.14,3.22,4.67c0.54,0.53,1.38,0.89,2.55,1.07C605.49,634.04,606.16,634.3,606.11,634.58z"/>
			<path class="st1" d="M653.26,603.76c-0.06,0.29-0.87,0.27-2.41-0.03c-1.9-0.37-3.12-0.36-3.63,0.05
				c-0.17,0.12-0.33,0.43-0.48,0.91c-2.05,9.62-3.07,14.43-5.12,24.05c-1.91,8.95-7.66,12.34-17.32,10.51
				c-4.96-0.94-8.56-2.96-10.86-6.13c-1.72-2.37-2.18-6.12-1.33-11.26c1.45-8.77,2.18-13.16,3.63-21.93c0.2-1.22,0.1-2-0.31-2.34
				c-0.41-0.34-1.81-0.79-4.2-1.32c-0.5-0.12-0.72-0.31-0.68-0.58c0.05-0.34,0.49-0.45,1.31-0.32c0.22,0.03,0.33,0.05,0.55,0.09
				c0.41,0.07,0.75,0.12,1.03,0.16c1.7,0.27,2.54,0.41,4.24,0.7c4,0.71,6.98,1.22,8.88,1.55c2.53,0.43,3.55,0.65,3,0.55
				c0.57,0.11,0.86,0.16,1.43,0.27c0.77,0.15,1.12,0.41,1.05,0.79c-0.06,0.34-0.8,0.38-2.21,0.12c-2-0.37-3.12-0.26-3.37,0.32
				c-0.17,0.4-0.29,0.79-0.35,1.17c-1.55,8.53-2.32,12.8-3.87,21.34c-0.56,3.08-0.83,5.06-0.87,5.91c-0.1,2.49,0.33,4.46,1.42,5.8
				c1.34,1.66,3.29,2.74,5.86,3.24c2.91,0.57,5.22,0.17,6.94-1.2c2.08-1.66,3.69-5.07,4.77-10.24c1.57-7.48,2.36-11.22,3.93-18.69
				c0.07-0.34,0.16-0.77,0.27-1.3c0.11-0.53,0.18-0.85,0.2-0.96c0.21-0.98-0.02-1.69-0.6-2.14c-0.4-0.3-1.27-0.6-2.55-0.88
				c-1.59-0.34-2.36-0.75-2.28-1.17c0.06-0.3,0.41-0.39,1.04-0.26c0.68,0.14,1.67,0.37,2.97,0.7c1.3,0.33,2.29,0.57,2.97,0.71
				c0.04,0.01,0.5-0.02,1.19,0.08c0.72,0.1,1.47,0.32,2.1,0.45c0.65,0.14,0.98,0.21,1.63,0.35
				C652.66,603.12,653.33,603.44,653.26,603.76z M639.58,592.15c-0.28,1.4-1.11,2.47-2.49,3.22c-1.38,0.75-2.91,0.97-4.6,0.65
				c-1.64-0.31-2.97-1.07-3.97-2.27c-1.01-1.2-1.39-2.51-1.14-3.91c0.25-1.4,1.08-2.49,2.49-3.26c1.4-0.76,2.97-0.98,4.68-0.66
				c1.62,0.31,2.94,1.08,3.94,2.32C639.49,589.49,639.85,590.79,639.58,592.15z M637.37,591.72c0.18-0.95-0.04-1.82-0.67-2.61
				c-0.64-0.79-1.53-1.3-2.69-1.52c-1.06-0.2-2.03-0.04-2.89,0.49c-0.86,0.53-1.38,1.27-1.55,2.22c-0.17,0.91,0.07,1.76,0.71,2.54
				c0.64,0.79,1.48,1.28,2.53,1.47c1.14,0.22,2.14,0.08,2.99-0.4C636.66,593.44,637.18,592.7,637.37,591.72z"/>
		</g>
	</g>
	<path class="st2" d="M708.75,499.69c0,0-2.09,2.72-26.36,20.85c-9.62,7.18-20.01,17.48-28.93,27.12l-21.03-5.78
		c10.42-11.11,23.16-25.76,31.06-38.72c15.77-25.87,18.28-28.2,18.28-28.2l111.55-122.67c-4.4,10.29-11.99,21.84-16.31,28.05
		c-1.92,2.76-4.02,5.38-6.29,7.86l-79.81,87.15c-8.69,10.1-11.36,15.81-11.69,19.04c-0.01,0.02-0.01,0.05,0,0.06
		c-0.45,2.47-0.26,4.75,0.61,6.55c0.4,0.83,0.94,1.56,1.63,2.15c0.45,0.39,0.96,0.71,1.49,0.96c4.33,1.96,10.53-1.13,15.27-4.88
		c2.57-2.03,5.63-4.82,9.28-8.62l79.27-87.63c2.25-2.49,4.66-4.83,7.23-7c5.78-4.88,16.57-13.53,26.39-18.87L708.75,499.69z"/>
	<path class="st2" d="M567.59,651.78l-42.2,44.87c-1.34,1.42-3.32,2.01-5.21,1.58l-21.94-5.15c-4.01-0.94-5.56-5.83-2.82-8.91
		l30.46-34.27c11.91,0.27,23.77,0.76,35.57,1.49h0.01C563.52,651.52,565.55,651.64,567.59,651.78z"/>
	<path class="st1" d="M531.4,675.66c-2.01,2.17-5.41,2.3-7.58,0.28c-2.18-2-2.31-5.39-0.3-7.56c2.01-2.18,5.41-2.31,7.58-0.3
		C533.28,670.1,533.4,673.48,531.4,675.66z"/>
	<path class="st2" d="M656.85,556.87l-16.05,17.07c-14.09-2.14-28.3-3.94-42.61-5.42l23.5-26.44c1.37-1.55,3.51-2.18,5.51-1.63
		l5.24,1.45l21.04,5.77l0.87,0.24C658.28,548.98,659.66,553.88,656.85,556.87z"/>
	<g>
		<path class="st4" d="M784.18,367.25l-100.7,111.57c-0.94,1.04-1.77,2.18-2.48,3.39c-4.45,7.6-21.88,37-30.39,45.88"/>
		<path class="st4" d="M784.18,367.25c-5.72,6.61-11.51,13.14-17.26,19.72l-17.39,19.6l-34.97,39.03L696.95,465l-8.8,9.7l-4.4,4.84
			c-0.7,0.79-1.34,1.64-1.91,2.53l-1.68,2.79c-4.52,7.48-9.12,14.92-13.91,22.23c-2.42,3.64-4.86,7.27-7.42,10.81
			c-2.56,3.54-5.19,7.05-8.22,10.21c2.9-3.27,5.39-6.86,7.87-10.45c2.46-3.61,4.79-7.29,7.11-10.99
			c4.65-7.39,9.13-14.88,13.51-22.43l1.65-2.85c0.59-0.96,1.25-1.87,1.99-2.73l4.38-4.89l8.75-9.75l17.5-19.5l35.25-38.78
			l17.72-19.3C772.29,380.04,778.2,373.61,784.18,367.25z"/>
	</g>
	<g>
		<line class="st4" x1="561.45" y1="651.39" x2="530.84" y2="683.96"/>
		<path class="st4" d="M561.45,651.39c-2.31,2.94-4.73,5.78-7.2,8.57c-2.46,2.8-4.98,5.54-7.52,8.26c-2.56,2.7-5.14,5.39-7.78,8.02
			c-2.64,2.63-5.32,5.23-8.11,7.71c2.31-2.94,4.73-5.78,7.19-8.57c2.46-2.8,4.98-5.54,7.52-8.26c2.56-2.7,5.14-5.39,7.78-8.02
			C555.98,656.47,558.66,653.88,561.45,651.39z"/>
	</g>
	<g>
		<path class="st4" d="M652.03,543.36c0,0,15.52-18.04,28.51-27.22"/>
		<path class="st4" d="M652.03,543.36c1.91-2.7,4.01-5.25,6.19-7.73c2.17-2.48,4.46-4.87,6.81-7.19c2.38-2.29,4.81-4.53,7.39-6.61
			c2.58-2.07,5.26-4.04,8.13-5.68c-2.48,2.19-4.9,4.39-7.3,6.63c-2.38,2.25-4.75,4.52-7.09,6.82l-7.02,6.9
			C656.79,538.8,654.44,541.1,652.03,543.36z"/>
	</g>
	<g>
		<path class="st4" d="M510.12,673.79c0,0-21.28,16.94-5.82,16.86"/>
		<path class="st4" d="M510.12,673.79c-1.44,1.6-2.9,3.13-4.33,4.67c-0.71,0.78-1.43,1.54-2.11,2.34c-0.69,0.78-1.37,1.57-1.98,2.4
			c-0.63,0.81-1.22,1.65-1.68,2.52c-0.48,0.85-0.77,1.79-0.64,2.55c0.1,0.77,0.94,1.33,1.86,1.68c0.94,0.38,2,0.51,3.05,0.72
			c-1.06,0.15-2.15,0.25-3.26,0.05c-0.28-0.02-0.55-0.13-0.83-0.21c-0.28-0.07-0.55-0.22-0.82-0.37c-0.29-0.12-0.5-0.4-0.74-0.62
			c-0.17-0.28-0.41-0.56-0.48-0.89c-0.25-0.65-0.17-1.31-0.08-1.91c0.06-0.3,0.16-0.57,0.23-0.86l0.32-0.8
			c0.49-1.03,1.12-1.94,1.77-2.82c1.35-1.73,2.87-3.26,4.5-4.65C506.55,676.15,508.26,674.86,510.12,673.79z"/>
	</g>
	<path class="st2" d="M380.63,572.34c-1.99,0.27-3.97,0.55-5.94,0.84c-10.5,1.52-20.94,3.24-31.31,5.14l-12.33-14.49
		c-1.25-1.46-1.56-3.52-0.8-5.29l0.9-2.1l9.49-21.97c0.46-1.07,1.23-1.89,2.13-2.39c2.04-1.17,4.82-0.84,6.49,1.22L380.63,572.34z"
		/>
	<path class="st1" d="M362.03,573.37c-2.13,1.75-5.28,1.44-7.03-0.69c-1.76-2.13-1.45-5.27,0.69-7.03c2.13-1.75,5.27-1.44,7.03,0.69
		C364.47,568.47,364.16,571.62,362.03,573.37z"/>
	<path class="st1" d="M625.33,571.96c-2.13,1.75-5.28,1.44-7.03-0.69c-1.76-2.13-1.45-5.26,0.69-7.02c2.13-1.75,5.27-1.44,7.03,0.69
		C627.77,567.06,627.46,570.21,625.33,571.96z"/>
	<path class="st2" d="M462.02,677.64l-7.58,19.59c-1.39,3.58-6.1,4.38-8.59,1.45l-37.34-43.86c9.84-1.06,19.73-1.96,29.67-2.69
		c2.07-0.15,4.14-0.3,6.22-0.44l16.84,20.95C462.38,674.05,462.66,675.96,462.02,677.64z"/>
	<path class="st1" d="M439.08,666.72c-2.13,1.75-5.28,1.45-7.03-0.69c-1.76-2.13-1.45-5.27,0.69-7.03c2.13-1.75,5.27-1.44,7.03,0.69
		C441.51,661.82,441.2,664.98,439.08,666.72z"/>
	<path class="st2" d="M342.3,531.41l0.46,0.68c-0.9,0.51-1.66,1.32-2.13,2.39l-9.48,21.97l-20.18,9.71
		c0,0-139.02-187.95-128.38-220.83C182.58,345.33,204.67,346.18,342.3,531.41z"/>
	<g>
		<path class="st4" d="M315.66,561.42C213.17,432.57,186.68,362.5,186.11,350.68"/>
		<path class="st4" d="M315.66,561.42l-9.79-12.08l-9.65-12.19c-6.35-8.2-12.65-16.43-18.83-24.76
			c-12.37-16.65-24.27-33.65-35.69-50.97c-11.32-17.38-22.18-35.09-32.01-53.37c-4.9-9.15-9.56-18.43-13.78-27.91
			c-2.08-4.75-4.06-9.55-5.83-14.43c-0.89-2.44-1.71-4.9-2.44-7.39c-0.69-2.5-1.36-5.02-1.54-7.62c0.26,2.58,1.01,5.08,1.77,7.54
			c0.79,2.47,1.66,4.9,2.6,7.31c1.87,4.83,3.97,9.56,6.15,14.26c4.35,9.39,9.12,18.59,14.15,27.64
			c10.03,18.12,20.85,35.79,32.26,53.08c5.64,8.69,11.46,17.26,17.34,25.78c5.91,8.51,11.93,16.94,17.99,25.34
			c6.05,8.41,12.24,16.72,18.46,25.01l9.36,12.41L315.66,561.42z"/>
	</g>
	<g>
		<line class="st4" x1="277.48" y1="454.9" x2="336.25" y2="530.66"/>
		<path class="st4" d="M277.48,454.9c2.59,3.05,5.1,6.15,7.66,9.23l7.52,9.33c5.01,6.22,9.93,12.52,14.84,18.82
			c4.88,6.32,9.76,12.65,14.55,19.05l7.17,9.61c2.34,3.24,4.73,6.44,7.03,9.71c-2.59-3.04-5.1-6.15-7.66-9.23l-7.52-9.33
			c-5.01-6.22-9.93-12.52-14.84-18.83c-4.88-6.33-9.76-12.65-14.54-19.05l-7.17-9.61C282.17,461.37,279.79,458.17,277.48,454.9z"/>
	</g>
	<g>
		<line class="st4" x1="445.84" y1="661.65" x2="438.18" y2="652.12"/>
		<path class="st4" d="M445.84,661.65c-0.9-0.59-1.67-1.27-2.4-1.99c-0.74-0.71-1.41-1.48-2.05-2.27c-0.64-0.79-1.24-1.62-1.78-2.49
			c-0.55-0.87-1.05-1.77-1.42-2.78c0.9,0.58,1.68,1.27,2.41,1.99c0.74,0.71,1.41,1.48,2.05,2.27c0.64,0.8,1.24,1.62,1.77,2.5
			C444.96,659.75,445.46,660.65,445.84,661.65z"/>
	</g>
	<g>
		<line class="st4" x1="374.69" y1="573.19" x2="362.73" y2="558.32"/>
		<path class="st4" d="M374.69,573.19c-1.26-1.03-2.39-2.16-3.48-3.32c-1.1-1.16-2.12-2.38-3.13-3.6c-0.99-1.25-1.95-2.51-2.85-3.83
			c-0.9-1.31-1.76-2.66-2.5-4.11c1.26,1.03,2.39,2.16,3.48,3.32c1.1,1.16,2.12,2.38,3.13,3.61c0.98,1.25,1.95,2.51,2.85,3.83
			C373.09,570.39,373.95,571.74,374.69,573.19z"/>
	</g>
	<g>
		<path class="st4" d="M438.04,683.06c0,0,11.75,22.45,14.4,8.29"/>
		<path class="st4" d="M438.04,683.06c1.23,1.58,2.38,3.18,3.55,4.76c1.18,1.56,2.33,3.14,3.62,4.56c0.63,0.72,1.29,1.4,2,1.98
			c0.69,0.59,1.49,1.01,2.18,1.03c0.7,0.06,1.36-0.59,1.84-1.38c0.52-0.78,0.83-1.73,1.22-2.65c-0.04,1-0.13,2.01-0.51,3
			c-0.07,0.25-0.21,0.49-0.34,0.73c-0.11,0.25-0.3,0.47-0.49,0.69c-0.16,0.24-0.46,0.39-0.7,0.58c-0.29,0.11-0.59,0.28-0.91,0.29
			c-1.31,0.15-2.36-0.49-3.22-1.07c-0.86-0.63-1.59-1.37-2.28-2.12c-1.34-1.54-2.48-3.2-3.46-4.95
			C439.54,686.77,438.68,684.96,438.04,683.06z"/>
	</g>
	<polygon class="st1" points="748.41,684.32 704.76,711.56 704.76,673.06 	"/>
	<polygon class="st1" points="262.64,684.32 306.29,711.56 306.29,672.84 	"/>
	<g>
		<path class="st4" d="M640.36,457.1"/>
	</g>
	<path class="st5" d="M736.45,700.15"/>
	<g>
		<g>
			<line class="st4" x1="754.21" y1="637.16" x2="812.35" y2="650.08"/>
			<path class="st4" d="M754.21,637.16c4.95,0.59,9.86,1.41,14.74,2.31c4.89,0.89,9.74,1.91,14.59,2.97
				c4.84,1.1,9.67,2.22,14.48,3.49c4.81,1.25,9.59,2.58,14.33,4.15c-4.95-0.58-9.86-1.4-14.74-2.31c-4.89-0.89-9.74-1.91-14.59-2.97
				c-4.84-1.1-9.67-2.23-14.48-3.49C763.74,640.06,758.95,638.73,754.21,637.16z"/>
		</g>
		<g>
			<line class="st4" x1="721.91" y1="704.99" x2="815.58" y2="725.98"/>
			<path class="st4" d="M721.91,704.99c7.91,1.29,15.78,2.74,23.62,4.33c7.85,1.56,15.66,3.26,23.48,4.99
				c7.8,1.77,15.6,3.57,23.36,5.51c7.77,1.9,15.51,3.96,23.21,6.17c-7.91-1.29-15.78-2.73-23.62-4.33
				c-7.85-1.56-15.66-3.26-23.47-4.99c-7.8-1.77-15.59-3.57-23.36-5.51C737.35,709.25,729.62,707.2,721.91,704.99z"/>
		</g>
		<g>
			<line class="st4" x1="736.45" y1="700.15" x2="802.66" y2="714.68"/>
			<path class="st4" d="M736.45,700.15c5.63,0.72,11.2,1.68,16.75,2.71c5.56,1.02,11.09,2.18,16.61,3.37
				c5.51,1.23,11.02,2.49,16.5,3.89c5.48,1.38,10.94,2.85,16.35,4.56c-5.63-0.72-11.2-1.67-16.76-2.71
				c-5.56-1.02-11.09-2.18-16.61-3.37c-5.51-1.23-11.02-2.5-16.5-3.9C747.32,703.31,741.86,701.85,736.45,700.15z"/>
		</g>
		<g>
			<line class="st4" x1="757.44" y1="645.24" x2="801.04" y2="654.93"/>
			<path class="st4" d="M757.44,645.24c3.74,0.32,7.43,0.87,11.1,1.5c3.68,0.62,7.32,1.38,10.96,2.16
				c3.63,0.83,7.25,1.69,10.84,2.68c3.6,0.98,7.17,2.05,10.7,3.35c-3.74-0.32-7.43-0.87-11.11-1.5c-3.68-0.62-7.32-1.38-10.96-2.16
				c-3.63-0.83-7.25-1.69-10.84-2.68C764.54,647.6,760.97,646.53,757.44,645.24z"/>
		</g>
	</g>
	<g>
		<g>
			<line class="st4" x1="258.43" y1="637.16" x2="200.29" y2="650.08"/>
			<path class="st4" d="M258.43,637.16c-4.74,1.57-9.52,2.9-14.33,4.15c-4.8,1.27-9.64,2.39-14.48,3.49
				c-4.85,1.06-9.71,2.08-14.59,2.97c-4.88,0.9-9.79,1.72-14.74,2.31c4.74-1.57,9.52-2.9,14.33-4.15c4.8-1.26,9.64-2.39,14.48-3.49
				c4.85-1.05,9.71-2.08,14.59-2.97C248.57,638.57,253.48,637.75,258.43,637.16z"/>
		</g>
		<g>
			<line class="st4" x1="290.73" y1="704.99" x2="197.06" y2="725.98"/>
			<path class="st4" d="M290.73,704.99c-7.7,2.21-15.44,4.26-23.21,6.17c-7.76,1.94-15.56,3.74-23.36,5.51
				c-7.81,1.73-15.63,3.43-23.47,4.99c-7.84,1.6-15.71,3.04-23.62,4.33c7.7-2.21,15.44-4.27,23.21-6.17
				c7.76-1.94,15.56-3.74,23.36-5.51c7.81-1.73,15.63-3.43,23.48-4.99C274.95,707.73,282.82,706.28,290.73,704.99z"/>
		</g>
		<g>
			<line class="st4" x1="276.19" y1="700.15" x2="209.98" y2="714.68"/>
			<path class="st4" d="M276.19,700.15c-5.41,1.7-10.87,3.17-16.35,4.55c-5.48,1.4-10.98,2.66-16.5,3.9
				c-5.52,1.19-11.05,2.35-16.61,3.37c-5.56,1.04-11.13,1.99-16.76,2.71c5.41-1.7,10.87-3.17,16.35-4.56
				c5.48-1.4,10.98-2.66,16.5-3.89c5.52-1.19,11.05-2.35,16.61-3.37C264.99,701.82,270.57,700.87,276.19,700.15z"/>
		</g>
		<g>
			<line class="st4" x1="255.2" y1="645.24" x2="211.6" y2="654.93"/>
			<path class="st4" d="M255.2,645.24c-3.52,1.3-7.1,2.36-10.7,3.34c-3.59,1-7.21,1.85-10.84,2.68c-3.64,0.79-7.28,1.54-10.96,2.16
				c-3.67,0.63-7.36,1.18-11.11,1.5c3.52-1.3,7.1-2.36,10.7-3.35c3.59-1,7.21-1.85,10.84-2.68c3.64-0.78,7.28-1.54,10.96-2.16
				C247.77,646.11,251.46,645.56,255.2,645.24z"/>
		</g>
	</g>
	<path class="st6" d="M496.37,371.74c-17.66-28.26,11.41-17.05-14.5-54.73c-25.89-37.67-52.97-35.31-63.57-38.85
		c-5.43-1.82-14.09-11.91-21.22-21.29c-64.32-11.67-91.51,44.4-91.51,44.4c-20.32,55.48,15.62,75.19,17.97,106.98
		c2.35,31.78,51.8,74.16,92.41,80.96c11.26,1.87,23.3,1.38,35.47-0.61h0.11c0,0,0.01-0.01,0.03-0.01c2.27-0.37,4.52-0.79,6.79-1.25
		c13.69-8.05,34.33-21.08,41.19-30.23C510.14,442.97,514.04,399.98,496.37,371.74z M420.34,318.23c-2.87-17.6-0.26-30.06,5.63-30.06
		c0,0,36.98,4.18,50.7,27.25c6.17,10.39,8.71,16.14,7.04,28.16c-3.88,27.99-26.52,53.8-36.61,56.32c-5.63,1.41-45.29,1.8-40.28-12
		C411.83,374.1,425.75,351.48,420.34,318.23z M421.84,406.47c-1.68,7.87-4.17,9.94-10.12,10.69c-11.26,1.41-12.67-19.71-12.67-19.71
		c-0.63-11.22,13.62,1.57,15.49,2.82C418.75,403.08,422.38,403.91,421.84,406.47z M303.47,329.5c0.33-10.19,5.37-26.89,11.26-35.2
		c10.71-15.1,38.26-39.25,66.18-35.2c38.97,5.67,35.57,44.98,36.61,50.69c2.82,15.49,1.41,22.53,0,30.98
		c-1.69,10.11-1.01,40.45-19.71,50.69c-18.99,10.41-34,8.29-46.47-4.22c-18.75-18.83-21.59-7.89-37.22-22.54
		C308.25,359.54,303,344,303.47,329.5z M389.47,471.82c-14.12,0-54.98-37.83-56.43-52.21c-1.44-14.36-10.68-32.55-10.68-32.55
		s-15.31-22.37,21.19,1.17c26.95,17.39,43.62,13.6,50.51,10.42c1.49-0.69,3.15,0.42,3.15,2.07c0,13.24,18.06,20.76,20.52,28.72
		C420.34,437.92,403.59,471.82,389.47,471.82z M494.96,452c-25.34,40.83-85.89,36.61-94.34,23.94c-0.7-1.05,0.69-4.59,1.41-5.63
		c30.15-43.99,19.22-37.43,16.9-47.87c-1.68-7.5,2.62-13.63,5.63-15.49c1.18-0.73,4.22-1.41,8.12-1.13
		c15.82,1.14,36.11-14.93,39.76-24.22c2.64-6.72,7.04-16.9,12.67-14.08c5.7,2.85,19.62,24.82,19.71,49.28
		C504.86,428.22,502.78,439.41,494.96,452z"/>
	<path class="st2" d="M626.03,399.96c-3.51,9.21-20.5,19.16-17.6,25.95c2.91,6.8,12.24,6.38,10.12,12.64
		c-0.45,1.34-1.41,2.96-3.06,5.01c-11.24,14.02-46.16,3.37-77.23,15.81c-20.82,8.34-50.42,21.94-79.92,27.96
		c13.69-8.05,34.33-21.08,41.19-30.23c10.6-14.14,14.14-56.52-3.53-84.76c-17.66-28.26,11.79-17.66-14.12-55.34
		c-25.89-37.67-52.97-35.31-63.57-38.85c-5.43-1.82-14.09-11.91-21.22-21.29c16.91,3.06,36.41,10.81,58.65,25.5
		c106.8,70.54,104.74,99.68,125.63,111.74c20.9,12.08,40.03-10.59,44.73,0C626.93,396,626.79,397.96,626.03,399.96z"/>
	<path class="st2" d="M672.01,430.61c2.35,3.53,7.06,21.19-12.95,20.01c-11.49-0.68-27.93-7.02-40.5-12.07
		c2.12-6.26-7.2-5.85-10.12-12.65c-2.91-6.78,14.1-16.74,17.61-25.96c10.35-1.39,23.91-3.7,31.84-7.01
		c14.13-5.88,21.19,23.54,15.31,28.26C667.29,425.91,669.65,427.08,672.01,430.61z"/>
	<g>
		<path class="st4" d="M494.59,322.68c0,0,43.6,30.68,62.98,61.37"/>
		<path class="st4" d="M494.59,322.68c6.67,3.35,12.88,7.45,18.88,11.81c5.98,4.39,11.71,9.13,17.14,14.21
			c5.4,5.11,10.53,10.53,15.18,16.37c4.58,5.89,8.76,12.16,11.77,18.99c-4.99-5.55-9.97-10.85-15.09-16.05
			c-5.15-5.16-10.43-10.18-15.72-15.2l-16.1-14.9C505.29,332.91,499.89,327.92,494.59,322.68z"/>
	</g>
	<g>
		<path class="st4" d="M499.44,466.41c8.48-2.19,54.2-24.86,65.93-22.86"/>
		<path class="st4" d="M499.44,466.41c2.61-1.41,5.12-2.9,7.67-4.35c2.55-1.44,5.13-2.83,7.74-4.18c5.21-2.67,10.53-5.15,15.98-7.36
			c5.45-2.21,11.01-4.18,16.76-5.67c2.88-0.73,5.8-1.36,8.79-1.72c1.49-0.16,3-0.28,4.52-0.27c1.51,0.05,3.06,0.15,4.47,0.69
			c-2.96,0.27-5.64,1.26-8.35,2.27c-2.69,1.02-5.36,2.11-8.03,3.23c-5.33,2.22-10.66,4.51-16.05,6.69
			c-5.39,2.18-10.82,4.29-16.36,6.21c-2.77,0.95-5.57,1.86-8.41,2.66C505.31,465.34,502.44,466.18,499.44,466.41z"/>
	</g>
	<g>
		<path class="st4" d="M649.63,443.8c0,0,20.99,8.07,19.38-8.07"/>
		<path class="st4" d="M649.63,443.8c2.23,0.31,4.39,0.63,6.53,0.82c1.07,0.07,2.13,0.16,3.18,0.13c1.04-0.01,2.08-0.05,3.07-0.25
			c1.98-0.33,3.74-1.19,4.83-2.78c0.55-0.79,0.96-1.74,1.2-2.76c0.31-1.02,0.4-2.11,0.57-3.23c0.32,1.08,0.54,2.2,0.52,3.37
			c0,1.16-0.22,2.38-0.78,3.5c-0.53,1.14-1.45,2.1-2.5,2.8c-1.07,0.68-2.27,1.07-3.44,1.31c-2.38,0.39-4.71,0.16-6.92-0.36
			C653.67,445.8,651.55,444.99,649.63,443.8z"/>
	</g>
	<g>
		<path class="st4" d="M652.86,440.57c0,0,8.2,5.11,12.92-4.84"/>
		<path class="st4" d="M652.86,440.57c1.37,0.24,2.63,0.38,3.84,0.38c1.21-0.03,2.33-0.22,3.36-0.65c1.02-0.44,2-1.04,2.93-1.84
			c0.26-0.17,0.45-0.42,0.68-0.63l0.7-0.66c0.44-0.47,0.87-0.97,1.42-1.44c-0.09,0.69-0.28,1.35-0.49,2.03
			c-0.31,0.62-0.56,1.29-1,1.86c-0.79,1.2-2.01,2.18-3.4,2.76c-1.41,0.59-3,0.66-4.41,0.3
			C655.07,442.33,653.78,441.63,652.86,440.57z"/>
	</g>
	<g>
		<path class="st4" d="M627.32,412.57c0,0,38.02-23.94,40.83-7.04"/>
		<path class="st4" d="M627.32,412.57c3.08-2.44,6.39-4.55,9.81-6.48c3.42-1.93,6.98-3.61,10.69-5.01c3.72-1.32,7.6-2.46,11.7-2.45
			c2.02,0.02,4.19,0.39,5.94,1.62c0.88,0.59,1.53,1.47,2.01,2.36c0.18,0.48,0.35,0.96,0.49,1.43l0.19,1.47l-0.51-1.36
			c-0.23-0.42-0.46-0.83-0.71-1.23c-0.59-0.72-1.23-1.37-2.06-1.74c-1.59-0.82-3.47-0.93-5.31-0.81c-3.71,0.32-7.39,1.48-10.98,2.8
			c-3.61,1.31-7.14,2.87-10.67,4.46L627.32,412.57z"/>
	</g>
	<g>
		<path class="st4" d="M428.38,296.84c6.03-2.07,53.96,10.98,40.37,67.83"/>
		<path class="st4" d="M428.38,296.84c1.84-0.59,3.83-0.34,5.72-0.1c1.91,0.27,3.77,0.77,5.62,1.32c3.67,1.19,7.23,2.78,10.53,4.83
			c3.32,2.02,6.36,4.51,9.09,7.3c2.71,2.81,5.06,5.99,6.97,9.41c1.86,3.45,3.28,7.12,4.26,10.89c0.99,3.78,1.44,7.66,1.57,11.52
			c0.18,7.74-1.06,15.41-3.39,22.66c1.19-7.52,1.78-15.09,1.2-22.54c-0.6-7.43-2.55-14.72-6.1-21.18
			c-3.53-6.47-8.71-11.98-14.79-16.23c-3.06-2.11-6.35-3.92-9.8-5.37c-1.73-0.72-3.5-1.36-5.31-1.85c-0.91-0.24-1.82-0.45-2.75-0.6
			C430.27,296.79,429.32,296.63,428.38,296.84z"/>
	</g>
	<g>
		<path class="st4" d="M354.09,377.59c0,0,16.15,16.15,32.3,8.07"/>
		<path class="st4" d="M354.09,377.59c2.54,1.61,5.05,3.09,7.61,4.43c2.56,1.33,5.19,2.45,7.87,3.32c2.69,0.83,5.44,1.4,8.26,1.46
			c2.82,0.09,5.65-0.36,8.56-1.13c-2.39,1.83-5.37,2.99-8.46,3.32c-3.1,0.37-6.26-0.04-9.21-0.97c-2.95-0.94-5.7-2.37-8.17-4.14
			C358.09,382.12,355.84,380.05,354.09,377.59z"/>
	</g>
	<g>
		<path class="st4" d="M428.19,419.11c0,0,8.27,15,0.19,27.92"/>
		<path class="st4" d="M428.19,419.11c1.63,1.9,2.78,4.16,3.64,6.52c0.86,2.36,1.35,4.87,1.46,7.42c0.15,2.54-0.24,5.13-1.04,7.55
			c-0.22,0.6-0.43,1.2-0.67,1.79l-0.91,1.67c-0.16,0.27-0.32,0.54-0.49,0.81c-0.19,0.25-0.38,0.51-0.58,0.75
			c-0.4,0.49-0.79,0.97-1.22,1.42c0.16-0.62,0.34-1.2,0.52-1.78c0.09-0.29,0.19-0.57,0.29-0.85c0.08-0.29,0.13-0.59,0.2-0.88
			l0.43-1.72c0.08-0.59,0.19-1.16,0.29-1.73c0.31-2.3,0.5-4.59,0.36-6.91c-0.1-2.31-0.37-4.62-0.76-6.96
			C429.29,423.87,428.78,421.53,428.19,419.11z"/>
	</g>
	<g>
		<path class="st4" d="M346.02,424.42c0,0,30.68,37.14,37.14,37.14"/>
		<path class="st4" d="M346.02,424.42c3.27,3.02,6.36,6.17,9.4,9.35c3.06,3.17,6.03,6.41,9.03,9.62c1.47,1.63,2.96,3.24,4.46,4.84
			c1.47,1.63,2.98,3.21,4.47,4.82c1.51,1.58,3.01,3.18,4.58,4.69c0.78,0.76,1.58,1.5,2.42,2.19c0.41,0.36,0.85,0.66,1.3,0.97
			c0.22,0.15,0.47,0.26,0.71,0.4c0.24,0.13,0.51,0.17,0.78,0.26c-1.13,0.06-2.23-0.46-3.21-0.98c-1.01-0.52-1.94-1.15-2.87-1.77
			c-1.83-1.3-3.56-2.7-5.23-4.18c-3.35-2.93-6.45-6.1-9.47-9.34c-1.48-1.64-2.96-3.29-4.4-4.97c-1.41-1.7-2.85-3.38-4.21-5.13
			C351.03,431.74,348.39,428.18,346.02,424.42z"/>
	</g>
	<g>
		<path class="st4" d="M406.79,402.38c0,0,1.41,7.04,5.63,5.63"/>
		<path class="st4" d="M406.79,402.38c0.73,0.6,1.23,1.18,1.69,1.74c0.45,0.56,0.84,1.08,1.18,1.56c0.35,0.48,0.64,0.9,0.99,1.26
			c0.34,0.38,0.85,0.72,1.77,1.07c-0.52,0.77-1.59,1.19-2.64,0.96c-1.06-0.21-1.87-0.91-2.39-1.64c-0.53-0.74-0.84-1.56-0.96-2.4
			C406.33,404.11,406.38,403.24,406.79,402.38z"/>
	</g>
	<path class="st6" d="M404.67,403.08c0,0,1.41,8.45,5.63,8.45c0,0,9.86-1.41,5.63-4.22C411.71,404.49,406.08,398.86,404.67,403.08z"
		/>
	<g>
		<path class="st4" d="M322.48,361.18c0,0-8.45-60.55,21.12-81.67"/>
		<path class="st4" d="M322.48,361.18c-1.47-7.21-2.08-14.59-2.18-21.96c-0.07-3.69,0.09-7.39,0.33-11.08
			c0.29-3.69,0.77-7.37,1.39-11.03c1.36-7.28,3.42-14.54,6.91-21.16c3.37-6.64,8.37-12.59,14.67-16.44
			c-5.58,4.8-9.78,10.82-12.69,17.4c-1.46,3.29-2.73,6.66-3.68,10.15c-0.99,3.47-1.84,6.98-2.44,10.55
			c-1.31,7.12-1.96,14.37-2.3,21.64C322.17,346.53,322.17,353.84,322.48,361.18z"/>
	</g>
</g>
<g>
	<g>
		<path class="st7" d="M421.75,278.3c0,0,40.51-4.05,79.66,74.26S476.6,476.36,476.6,476.36s-49.44,19.33-83.2-0.92
			c-33.76-20.25-55.36-34.41-60.76-60.42s-13.69-39.03-13.69-39.03s-25.83-44.6,2.03-80.6c27.86-36,66.91-30.92,66.91-30.92
			L421.75,278.3z"/>
		<g>
			<path class="st8" d="M311.15,667.46v37.43c-41.13,7.95-81.41,17.32-120.74,28.05l41.16-57.56l-41.16-33.31
				c26.2-7.14,52.82-13.7,79.83-19.62v55.29C283.75,674,297.38,670.57,311.15,667.46z"/>
			<path class="st8" d="M781.93,675.39l43.04,57.56c-41.13-10.73-83.26-20.1-126.29-28.05v-37.61c14.3,3.21,28.46,6.79,42.49,10.69
				V622.4c28.35,5.93,56.31,12.5,83.8,19.67L781.93,675.39z"/>
			<path class="st9" d="M741.17,594.17l-0.69,83.47c-14.03-3.9-27.5-7.14-41.8-10.36c-43.07-9.7-87.33-16.22-132.55-19.33
				c-1.99-0.14-3.97-0.26-5.98-0.38h-0.01c-11.51-0.71-23.08-1.2-34.7-1.46c-6.69-0.15-13.39-0.23-20.13-0.23
				c-19.95,0-39.76,0.67-59.37,1.98c-2.03,0.14-4.05,0.27-6.07,0.43c-9.7,0.71-19.34,1.59-28.94,2.62
				c-33.88,3.63-67.18,9.18-99.77,16.55c-13.76,3.1-26.97,6.43-40.48,10.18l-0.43-83.69c25.28-7.02,50.99-12.93,77.14-17.67
				c10.12-1.85,20.3-3.53,30.55-5.01c1.92-0.29,3.86-0.56,5.8-0.82c39.74-5.52,80.34-8.37,121.59-8.37
				c30.61,0,60.87,1.58,90.67,4.63c13.96,1.44,27.82,3.2,41.57,5.29C672.82,577.33,707.4,584.76,741.17,594.17z"/>
		</g>
		<path class="st8" d="M703.85,499.57c0,0-2.04,2.65-25.72,20.34c-9.39,7-19.53,17.05-28.22,26.46l-20.52-5.64
			c10.17-10.84,22.6-25.13,30.3-37.77c15.38-25.24,17.83-27.52,17.83-27.52l108.83-119.68c-4.29,10.04-11.7,21.31-15.91,27.37
			c-1.88,2.69-3.92,5.25-6.13,7.67l-77.86,85.03c-8.48,9.85-11.09,15.42-11.4,18.57c-0.01,0.02-0.01,0.04,0,0.06
			c-0.44,2.41-0.26,4.64,0.59,6.39c0.39,0.81,0.92,1.52,1.59,2.1c0.44,0.38,0.93,0.7,1.46,0.93c4.23,1.92,10.28-1.1,14.9-4.76
			c2.5-1.98,5.49-4.71,9.05-8.41l77.34-85.49c2.2-2.43,4.55-4.71,7.05-6.83c5.64-4.76,16.16-13.2,25.75-18.41L703.85,499.57z"/>
		<path class="st8" d="M566.13,647.95l-41.17,43.78c-1.3,1.39-3.24,1.96-5.08,1.54l-21.4-5.03c-3.92-0.92-5.43-5.69-2.75-8.7
			l29.71-33.44c11.62,0.26,23.19,0.74,34.7,1.46h0.01C562.16,647.69,564.13,647.82,566.13,647.95z"/>
		<path d="M530.82,671.25c-1.96,2.12-5.28,2.24-7.39,0.27c-2.13-1.95-2.25-5.26-0.29-7.38c1.96-2.13,5.28-2.25,7.39-0.29
			C532.65,665.83,532.77,669.12,530.82,671.25z"/>
		<path class="st8" d="M653.21,555.35L637.55,572c-13.75-2.09-27.61-3.85-41.57-5.29l22.93-25.8c1.33-1.51,3.42-2.13,5.37-1.59
			l5.11,1.41l20.52,5.63l0.85,0.23C654.61,547.66,655.95,552.44,653.21,555.35z"/>
		<g>
			<path d="M777.44,370.35c-5.58,6.44-11.23,12.82-16.84,19.23l-16.96,19.12l-34.12,38.08l-17.18,18.93l-8.59,9.46l-4.29,4.72
				c-0.68,0.77-1.31,1.6-1.86,2.47l-1.64,2.72c-4.41,7.3-8.89,14.55-13.57,21.68c-2.36,3.55-4.74,7.09-7.24,10.55
				c-2.5,3.45-5.06,6.88-8.02,9.96c2.83-3.19,5.26-6.69,7.68-10.2c2.4-3.52,4.68-7.11,6.94-10.72c4.54-7.21,8.9-14.52,13.18-21.88
				l1.61-2.78c0.57-0.94,1.22-1.83,1.94-2.66l4.27-4.77l8.54-9.51l17.07-19.02l34.39-37.83l17.29-18.83
				C765.83,382.83,771.6,376.56,777.44,370.35z"/>
		</g>
		<g>
			<path d="M560.14,647.57c-4.53,5.72-9.4,11.11-14.36,16.43c-4.99,5.28-10.07,10.48-15.51,15.35c4.52-5.72,9.4-11.12,14.36-16.43
				C549.63,657.64,554.71,652.44,560.14,647.57z"/>
		</g>
		<g>
			<path d="M648.51,542.17c1.88-2.62,3.9-5.13,6.04-7.55c2.12-2.42,4.35-4.75,6.64-7.02c4.63-4.47,9.55-8.74,15.14-11.99
				c-2.43,2.12-4.78,4.3-7.12,6.47c-2.32,2.2-4.63,4.41-6.92,6.65l-6.85,6.73C653.16,537.73,650.85,539.95,648.51,542.17z"/>
		</g>
		<g>
			<path d="M510.06,669.42c-1.4,1.56-2.83,3.05-4.22,4.56c-0.69,0.76-1.4,1.5-2.05,2.28c-0.67,0.76-1.34,1.53-1.93,2.34
				c-0.62,0.79-1.19,1.61-1.64,2.46c-0.47,0.83-0.75,1.75-0.63,2.48c0.09,0.75,0.91,1.3,1.82,1.63c0.92,0.37,1.95,0.5,2.98,0.7
				c-1.03,0.14-2.09,0.24-3.18,0.05c-0.27-0.02-0.54-0.12-0.81-0.21c-0.28-0.07-0.54-0.22-0.8-0.36c-0.28-0.12-0.48-0.39-0.72-0.6
				c-0.17-0.27-0.4-0.55-0.47-0.87c-0.25-0.64-0.17-1.27-0.07-1.86c0.06-0.29,0.15-0.56,0.23-0.84l0.32-0.78
				c0.48-1.01,1.09-1.9,1.73-2.75c1.31-1.68,2.8-3.18,4.39-4.54C506.57,671.73,508.24,670.47,510.06,669.42z"/>
		</g>
		<path class="st8" d="M383.72,570.45c-1.94,0.26-3.87,0.54-5.8,0.82c-10.25,1.48-20.43,3.16-30.55,5.01l-12.03-14.14
			c-1.22-1.43-1.52-3.43-0.78-5.17l0.88-2.05l9.26-21.43c0.45-1.04,1.2-1.84,2.07-2.34c1.99-1.14,4.7-0.82,6.33,1.2L383.72,570.45z"
			/>
		<path d="M365.57,571.45c-2.07,1.7-5.15,1.4-6.85-0.67c-1.72-2.07-1.41-5.14,0.67-6.85c2.07-1.7,5.14-1.4,6.85,0.67
			C367.95,566.67,367.65,569.75,365.57,571.45z"/>
		<path d="M622.46,570.07c-2.07,1.7-5.15,1.4-6.85-0.67c-1.72-2.07-1.41-5.14,0.67-6.85c2.07-1.7,5.14-1.4,6.85,0.67
			C624.84,565.29,624.54,568.37,622.46,570.07z"/>
		<path class="st8" d="M463.12,673.18l-7.39,19.11c-1.36,3.49-5.95,4.27-8.38,1.41l-36.43-42.79c9.6-1.03,19.25-1.91,28.94-2.62
			c2.02-0.15,4.04-0.29,6.07-0.43l16.43,20.44C463.48,669.67,463.75,671.54,463.12,673.18z"/>
		<path d="M440.74,662.53c-2.07,1.7-5.15,1.42-6.85-0.67c-1.72-2.07-1.41-5.14,0.67-6.85c2.07-1.7,5.14-1.4,6.85,0.67
			C443.12,657.75,442.82,660.83,440.74,662.53z"/>
		<path class="st8" d="M346.32,530.52l0.45,0.66c-0.88,0.5-1.62,1.28-2.08,2.33l-9.25,21.43l-19.69,9.48
			c0,0-135.63-183.37-125.26-215.45C190.5,348.96,212.04,349.8,346.32,530.52z"/>
		<g>
			<path d="M320.34,559.79L310.78,548l-9.42-11.9c-6.2-8-12.34-16.03-18.37-24.16c-12.06-16.25-23.68-32.83-34.82-49.73
				c-11.04-16.96-21.64-34.23-31.23-52.07c-4.78-8.92-9.33-17.98-13.44-27.23c-2.03-4.64-3.97-9.32-5.69-14.08
				c-0.87-2.38-1.67-4.78-2.38-7.21c-0.67-2.44-1.33-4.9-1.5-7.43c0.25,2.52,0.99,4.95,1.73,7.36c0.77,2.41,1.62,4.78,2.54,7.13
				c1.83,4.71,3.87,9.33,6,13.91c4.25,9.16,8.9,18.14,13.8,26.97c9.78,17.68,20.35,34.92,31.48,51.79
				c5.5,8.48,11.18,16.84,16.92,25.15c5.76,8.3,11.63,16.53,17.55,24.73c5.91,8.2,11.94,16.32,18.01,24.4l9.14,12.11L320.34,559.79z
				"/>
		</g>
		<g>
			<path d="M283.08,455.87c2.53,2.97,4.98,6,7.47,9l7.34,9.1c4.89,6.07,9.69,12.22,14.48,18.36c4.76,6.17,9.53,12.34,14.19,18.59
				l6.99,9.37c2.29,3.16,4.61,6.29,6.86,9.48c-2.53-2.97-4.98-6-7.47-9l-7.34-9.1c-4.89-6.07-9.69-12.22-14.48-18.37
				c-4.76-6.17-9.53-12.34-14.19-18.59l-6.99-9.37C287.66,462.18,285.33,459.05,283.08,455.87z"/>
		</g>
		<g>
			<path d="M447.34,657.58c-0.88-0.57-1.63-1.24-2.35-1.94c-0.72-0.7-1.38-1.44-2-2.22c-0.62-0.78-1.21-1.58-1.73-2.43
				c-0.53-0.85-1.02-1.73-1.39-2.71c0.88,0.57,1.63,1.24,2.35,1.94c0.72,0.7,1.38,1.44,2,2.22c0.62,0.78,1.21,1.58,1.73,2.43
				C446.48,655.72,446.97,656.61,447.34,657.58z"/>
		</g>
		<g>
			<path d="M377.92,571.27c-1.23-1-2.33-2.11-3.39-3.24c-1.07-1.13-2.07-2.32-3.05-3.52c-0.96-1.22-1.91-2.45-2.78-3.73
				c-0.88-1.28-1.72-2.6-2.44-4.01c1.23,1,2.33,2.1,3.39,3.24c1.07,1.13,2.07,2.32,3.05,3.52c0.96,1.22,1.91,2.45,2.78,3.74
				C376.37,568.54,377.21,569.86,377.92,571.27z"/>
		</g>
		<g>
			<path d="M439.73,678.47c1.2,1.54,2.32,3.11,3.46,4.64c1.15,1.53,2.28,3.06,3.53,4.45c0.61,0.7,1.26,1.37,1.95,1.93
				c0.67,0.57,1.45,0.99,2.13,1.01c0.68,0.05,1.32-0.58,1.8-1.35c0.51-0.77,0.81-1.69,1.19-2.59c-0.04,0.97-0.13,1.96-0.49,2.93
				c-0.07,0.25-0.21,0.48-0.33,0.71c-0.11,0.24-0.29,0.46-0.48,0.68c-0.16,0.24-0.45,0.38-0.69,0.56c-0.28,0.11-0.58,0.27-0.89,0.28
				c-1.28,0.15-2.3-0.48-3.14-1.04c-0.84-0.62-1.55-1.34-2.22-2.07c-1.31-1.5-2.42-3.13-3.38-4.82
				C441.2,682.08,440.35,680.32,439.73,678.47z"/>
		</g>
		<polygon points="742.54,679.7 699.95,706.27 699.95,668.71 		"/>
		<polygon points="268.6,679.7 311.19,706.27 311.19,668.5 		"/>
		<g>
			<path class="st10" d="M637.12,458.01"/>
		</g>
		<path class="st11" d="M730.87,695.14"/>
		<g>
			<g>
				<path d="M748.2,633.69c4.83,0.57,9.62,1.37,14.38,2.25c4.77,0.87,9.51,1.87,14.24,2.9c4.72,1.07,9.44,2.17,14.12,3.4
					c4.69,1.22,9.36,2.52,13.98,4.05c-4.83-0.57-9.62-1.37-14.38-2.25c-4.77-0.87-9.51-1.87-14.24-2.9
					c-4.72-1.07-9.44-2.17-14.12-3.41C757.49,636.52,752.82,635.22,748.2,633.69z"/>
			</g>
			<g>
				<path d="M716.69,699.86c7.72,1.26,15.4,2.67,23.05,4.22c7.66,1.52,15.28,3.18,22.9,4.86c7.61,1.73,15.22,3.48,22.79,5.37
					c7.58,1.88,15.14,3.83,22.64,6.02c-7.72-1.23-15.39-2.68-23.05-4.22c-7.66-1.52-15.28-3.18-22.9-4.87
					c-7.61-1.73-15.21-3.49-22.79-5.38C731.75,704.02,724.2,702.02,716.69,699.86z"/>
			</g>
			<g>
				<path d="M730.87,695.14c5.49,0.7,10.93,1.64,16.35,2.65c5.42,1,10.82,2.13,16.21,3.29c5.38,1.2,10.75,2.43,16.09,3.8
					c5.35,1.35,10.67,2.78,15.95,4.45c-5.49-0.7-10.93-1.63-16.35-2.64c-5.42-1-10.82-2.13-16.21-3.29
					c-5.38-1.2-10.75-2.44-16.09-3.8C741.48,698.23,736.15,696.8,730.87,695.14z"/>
			</g>
			<g>
				<path d="M751.35,641.57c3.65,0.31,7.25,0.85,10.83,1.47c3.59,0.6,7.14,1.34,10.69,2.11c3.54,0.81,7.07,1.64,10.58,2.62
					c3.51,0.96,7,2,10.44,3.26c-3.65-0.31-7.25-0.84-10.84-1.46c-3.59-0.6-7.14-1.34-10.69-2.11c-3.54-0.81-7.07-1.65-10.58-2.62
					C758.28,643.87,754.79,642.83,751.35,641.57z"/>
			</g>
		</g>
		<g>
			<g>
				<path d="M264.5,633.69c-4.62,1.53-9.29,2.83-13.98,4.05c-4.69,1.23-9.4,2.33-14.12,3.41c-4.73,1.03-9.47,2.03-14.24,2.9
					c-4.76,0.88-9.55,1.68-14.38,2.25c4.62-1.53,9.29-2.83,13.98-4.05c4.69-1.23,9.4-2.33,14.12-3.4c4.73-1.03,9.47-2.03,14.24-2.9
					C254.88,635.06,259.66,634.26,264.5,633.69z"/>
			</g>
			<g>
				<path d="M296.01,699.86c-7.52,2.15-15.06,4.16-22.65,6.02c-7.57,1.89-15.18,3.65-22.79,5.38c-7.62,1.69-15.25,3.34-22.9,4.87
					c-7.65,1.54-15.32,2.99-23.05,4.22c7.51-2.19,15.07-4.14,22.64-6.02c7.57-1.89,15.18-3.65,22.79-5.37
					c7.62-1.68,15.25-3.34,22.9-4.86C280.61,702.53,288.29,701.13,296.01,699.86z"/>
			</g>
			<g>
				<path d="M281.83,695.14c-5.28,1.66-10.61,3.09-15.95,4.44c-5.34,1.37-10.72,2.6-16.09,3.8c-5.39,1.16-10.78,2.29-16.21,3.29
					c-5.42,1.01-10.86,1.94-16.35,2.64c5.28-1.66,10.61-3.09,15.95-4.45c5.34-1.37,10.72-2.6,16.09-3.8
					c5.39-1.16,10.78-2.29,16.21-3.29C270.9,696.77,276.34,695.84,281.83,695.14z"/>
			</g>
			<g>
				<path d="M261.35,641.57c-3.44,1.27-6.93,2.3-10.44,3.26c-3.5,0.97-7.04,1.81-10.58,2.62c-3.55,0.77-7.11,1.51-10.69,2.11
					c-3.58,0.62-7.18,1.16-10.84,1.46c3.44-1.27,6.93-2.31,10.44-3.26c3.5-0.97,7.04-1.81,10.58-2.62c3.55-0.76,7.11-1.5,10.69-2.11
					C254.09,642.42,257.69,641.88,261.35,641.57z"/>
			</g>
		</g>
		<path class="st12" d="M496.64,374.73c-17.23-27.57,11.13-16.64-14.14-53.4c-25.26-36.75-51.68-34.45-62.02-37.9
			c-5.3-1.77-13.75-11.62-20.7-20.77c-62.75-11.39-89.28,43.31-89.28,43.31c-19.82,54.13,15.23,73.36,17.53,104.38
			c2.29,31.01,50.54,72.35,90.16,78.99c10.99,1.83,22.74,1.35,34.6-0.59h0.11c0,0,0.01-0.01,0.03-0.01
			c2.21-0.36,4.41-0.77,6.62-1.22c13.35-7.86,33.49-20.56,40.18-29.49C510.07,444.23,513.88,402.29,496.64,374.73z M422.46,322.53
			c-2.8-17.17-0.25-29.33,5.49-29.33c0,0,36.08,4.07,49.46,26.58c6.02,10.13,8.5,15.74,6.87,27.47
			c-3.79,27.3-25.88,52.49-35.72,54.95c-5.49,1.37-44.19,1.76-39.3-11.7C414.16,377.04,427.74,354.96,422.46,322.53z M423.92,408.62
			c-1.63,7.68-4.07,9.7-9.88,10.43c-10.99,1.37-12.36-19.23-12.36-19.23c-0.62-10.95,13.29,1.53,15.11,2.75
			C420.91,405.31,424.46,406.11,423.92,408.62z M308.44,333.52c0.32-9.94,5.24-26.23,10.99-34.34
			c10.45-14.73,37.32-38.3,64.57-34.34c38.02,5.54,34.7,43.89,35.72,49.45c2.75,15.11,1.37,21.98,0,30.22
			c-1.64,9.86-0.99,39.47-19.23,49.45c-18.53,10.15-33.18,8.09-45.33-4.12c-18.29-18.37-21.07-7.69-36.31-21.99
			C313.1,362.83,307.98,347.67,308.44,333.52z M392.34,472.38c-13.78,0-53.64-36.91-55.05-50.94c-1.4-14.01-10.42-31.76-10.42-31.76
			s-14.93-21.83,20.67,1.14c26.29,16.97,42.56,13.27,49.28,10.17c1.46-0.67,3.08,0.41,3.08,2.02c0,12.91,17.62,20.25,20.02,28.02
			C422.46,439.3,406.12,472.38,392.34,472.38z M495.27,453.03c-24.73,39.84-83.8,35.72-92.04,23.35c-0.69-1.03,0.67-4.48,1.37-5.49
			c29.41-42.92,18.75-36.51,16.48-46.71c-1.63-7.32,2.56-13.3,5.49-15.11c1.15-0.71,4.12-1.37,7.92-1.1
			c15.43,1.12,35.23-14.57,38.79-23.63c2.58-6.55,6.87-16.48,12.36-13.74c5.56,2.78,19.14,24.22,19.23,48.08
			C504.93,429.83,502.89,440.75,495.27,453.03z"/>
		<path class="st8" d="M623.14,402.26c-3.42,8.98-20,18.7-17.17,25.32c2.84,6.64,11.94,6.22,9.88,12.34
			c-0.44,1.31-1.37,2.88-2.98,4.89c-10.96,13.68-45.03,3.28-75.35,15.43c-20.32,8.13-49.19,21.4-77.97,27.28
			c13.35-7.86,33.49-20.56,40.18-29.49c10.34-13.79,13.79-55.14-3.45-82.7c-17.23-27.57,11.5-17.23-13.78-53.99
			c-25.26-36.75-51.68-34.45-62.02-37.9c-5.3-1.77-13.75-11.62-20.7-20.77c16.5,2.98,35.52,10.55,57.22,24.88
			c104.2,68.82,102.19,97.25,122.56,109.02c20.39,11.79,39.06-10.33,43.64,0C624.02,398.4,623.88,400.31,623.14,402.26z"/>
		<path class="st8" d="M668,432.17c2.3,3.44,6.89,20.67-12.64,19.52c-11.21-0.66-27.25-6.85-39.52-11.78
			c2.07-6.11-7.03-5.71-9.87-12.34c-2.83-6.62,13.75-16.33,17.18-25.32c10.1-1.36,23.33-3.61,31.06-6.84
			c13.78-5.74,20.67,22.97,14.93,27.57C663.39,427.58,665.7,428.73,668,432.17z"/>
		<g>
			<path d="M494.91,326.87c6.51,3.26,12.56,7.27,18.42,11.52c5.83,4.29,11.43,8.9,16.73,13.86c5.27,4.98,10.28,10.27,14.81,15.97
				c4.46,5.75,8.55,11.86,11.49,18.52c-4.87-5.41-9.71-10.6-14.72-15.66c-5.03-5.04-10.17-9.93-15.34-14.83l-15.7-14.54
				C505.35,336.84,500.07,331.98,494.91,326.87z"/>
		</g>
		<g>
			<path d="M499.63,467.09c2.55-1.37,4.99-2.83,7.49-4.25c2.49-1.41,5.01-2.76,7.55-4.07c5.09-2.61,10.27-5.02,15.59-7.18
				c5.31-2.15,10.74-4.08,16.36-5.53c2.81-0.71,5.66-1.33,8.57-1.67c1.46-0.16,2.93-0.28,4.41-0.26c1.48,0.05,2.99,0.15,4.36,0.67
				c-2.88,0.26-5.5,1.23-8.14,2.22c-2.63,0.99-5.23,2.06-7.83,3.15c-5.2,2.17-10.4,4.4-15.66,6.52c-5.26,2.13-10.56,4.19-15.96,6.05
				c-2.71,0.92-5.43,1.81-8.21,2.59C505.36,466.05,502.56,466.88,499.63,467.09z"/>
		</g>
		<g>
			<path d="M646.16,445.04c2.17,0.3,4.28,0.61,6.37,0.8c1.05,0.07,2.08,0.16,3.1,0.13c1.02-0.01,2.03-0.05,2.99-0.25
				c1.93-0.32,3.65-1.16,4.71-2.71c0.54-0.77,0.94-1.69,1.17-2.7c0.3-1,0.39-2.06,0.55-3.15c0.32,1.05,0.52,2.15,0.51,3.29
				c0,1.13-0.21,2.32-0.76,3.41c-0.51,1.11-1.42,2.05-2.44,2.73c-1.04,0.67-2.21,1.05-3.36,1.27c-2.32,0.38-4.6,0.16-6.75-0.35
				C650.11,446.99,648.04,446.19,646.16,445.04z"/>
		</g>
		<g>
			<path d="M649.31,441.88c1.33,0.24,2.57,0.37,3.74,0.37c1.18-0.03,2.27-0.21,3.28-0.64c1-0.43,1.95-1.01,2.86-1.8
				c0.25-0.17,0.44-0.41,0.66-0.62l0.68-0.64c0.43-0.46,0.85-0.95,1.38-1.41c-0.09,0.67-0.27,1.32-0.47,1.98
				c-0.3,0.6-0.55,1.26-0.98,1.82c-0.77,1.17-1.96,2.12-3.32,2.7c-1.37,0.57-2.93,0.65-4.3,0.29
				C651.48,443.6,650.22,442.92,649.31,441.88z"/>
		</g>
		<g>
			<path d="M624.4,414.57c3-2.38,6.23-4.44,9.57-6.32c3.34-1.88,6.81-3.52,10.43-4.88c3.63-1.29,7.41-2.4,11.42-2.39
				c1.97,0.02,4.08,0.38,5.8,1.58c0.86,0.58,1.49,1.43,1.96,2.3c0.18,0.47,0.34,0.94,0.48,1.4l0.19,1.44l-0.5-1.33
				c-0.22-0.41-0.45-0.81-0.69-1.2c-0.58-0.7-1.2-1.34-2.01-1.7c-1.55-0.8-3.39-0.91-5.18-0.79c-3.62,0.31-7.21,1.45-10.71,2.73
				c-3.52,1.28-6.97,2.8-10.41,4.35L624.4,414.57z"/>
		</g>
		<g>
			<path d="M430.31,301.66c1.8-0.57,3.74-0.33,5.58-0.1c1.86,0.26,3.68,0.75,5.49,1.29c3.58,1.16,7.05,2.71,10.27,4.71
				c3.24,1.97,6.2,4.4,8.87,7.12c2.64,2.75,4.93,5.84,6.8,9.18c1.81,3.36,3.2,6.95,4.16,10.63c0.97,3.68,1.41,7.47,1.53,11.24
				c0.18,7.55-1.03,15.03-3.31,22.11c1.16-7.34,1.73-14.72,1.17-21.99c-0.59-7.25-2.49-14.36-5.95-20.66
				c-3.45-6.31-8.49-11.69-14.43-15.84c-2.98-2.06-6.19-3.82-9.56-5.24c-1.69-0.7-3.41-1.33-5.18-1.8
				c-0.89-0.23-1.78-0.44-2.69-0.58C432.15,301.61,431.22,301.45,430.31,301.66z"/>
		</g>
		<g>
			<path d="M357.83,380.44c2.47,1.57,4.93,3.02,7.42,4.32c2.51,1.29,5.06,2.4,7.68,3.24c2.62,0.81,5.31,1.34,8.06,1.42
				c2.75,0.09,5.51-0.35,8.36-1.1c-2.33,1.78-5.24,2.92-8.25,3.24c-3.02,0.38-6.11-0.05-8.98-0.94c-2.87-0.93-5.57-2.3-7.97-4.03
				C361.73,384.86,359.53,382.84,357.83,380.44z"/>
		</g>
		<g>
			<path d="M430.12,420.95c1.59,1.86,2.72,4.06,3.55,6.36c0.84,2.3,1.31,4.75,1.43,7.23c0.14,2.48-0.24,5-1.02,7.36
				c-0.22,0.58-0.42,1.17-0.65,1.74l-0.89,1.63c-0.16,0.26-0.31,0.53-0.47,0.79c-0.19,0.25-0.37,0.49-0.57,0.73
				c-0.39,0.48-0.77,0.95-1.19,1.39c0.15-0.6,0.33-1.17,0.51-1.74c0.08-0.28,0.19-0.56,0.28-0.83c0.07-0.28,0.13-0.58,0.19-0.86
				l0.42-1.67c0.08-0.57,0.19-1.13,0.28-1.69c0.3-2.25,0.49-4.48,0.35-6.74c-0.09-2.25-0.36-4.51-0.74-6.79
				C431.2,425.59,430.69,423.31,430.12,420.95z"/>
		</g>
		<g>
			<path d="M349.95,426.13c3.19,2.94,6.2,6.02,9.17,9.12c2.99,3.09,5.88,6.26,8.81,9.39l4.35,4.73c1.43,1.59,2.91,3.13,4.36,4.7
				c1.47,1.54,2.93,3.1,4.47,4.58c0.76,0.74,1.54,1.47,2.36,2.13c0.4,0.35,0.83,0.65,1.27,0.95c0.22,0.15,0.45,0.26,0.69,0.39
				c0.23,0.13,0.49,0.16,0.76,0.25c-1.11,0.05-2.18-0.45-3.14-0.95c-0.99-0.5-1.89-1.12-2.8-1.73c-1.78-1.27-3.47-2.64-5.1-4.08
				c-3.27-2.86-6.29-5.96-9.24-9.11c-1.45-1.6-2.89-3.21-4.29-4.85c-1.38-1.66-2.78-3.29-4.11-5
				C354.84,433.27,352.27,429.8,349.95,426.13z"/>
		</g>
		<g>
			<path class="st13" d="M409.24,404.62c0.71,0.59,1.2,1.15,1.65,1.7c0.44,0.54,0.82,1.06,1.16,1.52c0.34,0.47,0.62,0.88,0.96,1.23
				c0.34,0.37,0.83,0.71,1.73,1.05c-0.51,0.76-1.55,1.16-2.57,0.94c-1.03-0.21-1.82-0.89-2.33-1.6c-0.52-0.72-0.82-1.52-0.94-2.34
				C408.79,406.31,408.84,405.47,409.24,404.62z"/>
		</g>
		<path class="st12" d="M407.18,405.31c0,0,1.37,8.24,5.49,8.24c0,0,9.62-1.37,5.49-4.12C414.05,406.68,408.55,401.19,407.18,405.31
			z"/>
		<g>
			<path d="M326.98,364.43c-1.43-7.04-2.03-14.23-2.13-21.43c-0.07-3.6,0.09-7.21,0.32-10.81c0.28-3.6,0.75-7.19,1.36-10.76
				c1.33-7.11,3.34-14.18,6.74-20.64c3.29-6.48,8.17-12.29,14.31-16.04c-5.45,4.69-9.55,10.55-12.38,16.98
				c-1.42,3.21-2.67,6.5-3.59,9.9c-0.97,3.38-1.8,6.81-2.38,10.29c-1.27,6.95-1.92,14.02-2.25,21.11
				C326.69,350.14,326.68,357.27,326.98,364.43z"/>
		</g>
	</g>
	<g>
		<g>
			<path class="st14" d="M380.82,589.32c-1.96,4.62-3.67,10.4-5.06,17.31c-0.99,4.9-1.19,8.91-0.67,12.01
				c0.58,3.45,1.9,5.99,3.95,7.63c2.05,1.63,4.36,2.24,6.96,1.84c2.45-0.38,4.66-1.32,6.65-2.82c2.64-1.99,4.99-4.74,7.03-8.28
				c2.04-3.54,3.59-7.65,4.62-12.34c1.03-4.69,1.33-8.98,0.86-12.89c-0.33-2.72-1.28-5.21-2.85-7.48c-0.83-1.15-1.3-1.84-1.41-2.07
				c-0.15-0.32-0.24-0.67-0.29-1.05c-0.09-0.71,0.08-1.33,0.51-1.84c0.43-0.51,0.99-0.81,1.7-0.9c1.23-0.15,2.27,0.35,3.12,1.44
				c1.18,1.5,2.01,3.96,2.41,7.36c0.85,7.29-0.03,14.75-2.5,22.38c-2.47,7.63-5.61,13.28-9.49,16.97c-3.87,3.69-8.12,5.9-12.81,6.65
				c-3.82,0.61-6.95-0.13-9.43-2.25c-2.48-2.12-4.05-4.97-4.69-8.59c-0.53-2.98-0.58-6.11-0.15-9.4c0.56-4.31,2.15-10.89,4.93-19.71
				c-3.22,0.45-6.04,1.31-8.44,2.54c-2.4,1.23-4.04,2.57-4.92,4c-0.88,1.43-1.21,2.74-0.99,3.94c0.09,0.49,0.54,1.11,1.25,1.85
				c0.79,0.82,1.22,1.55,1.32,2.09c0.12,0.68,0,1.29-0.37,1.82c-0.37,0.53-0.9,0.86-1.57,0.99c-0.83,0.15-1.62-0.06-2.37-0.65
				c-0.75-0.59-1.23-1.45-1.45-2.58c-0.34-1.81-0.12-3.74,0.68-5.78c0.8-2.04,2.02-3.78,3.65-5.22c1.63-1.44,3.76-2.66,6.37-3.64
				c1.29-0.49,4.04-1.21,8.23-2.1C378.44,589.94,380.2,589.54,380.82,589.32z"/>
			<path class="st14" d="M481.66,581.16c-0.09,0.36-0.13,0.54-0.22,0.9c-2.1,0.52-3.82,1.16-5.18,1.92s-3.17,2.12-5.43,4.09
				c-6.01,5.22-11.13,9.32-15.48,12.26c1.38,1.44,2.57,3.07,3.58,4.89c1,1.82,2.8,6.05,5.31,12.68c2.25,5.93,4.41,9.91,6.51,11.95
				c2.1,2.04,4.18,3.03,6.27,2.97c2.02-0.06,3.36-1.14,4.05-3.27c0.41-1.26,0.78-2.04,1.09-2.33c0.43-0.39,0.92-0.59,1.46-0.6
				c0.59-0.01,1.09,0.18,1.51,0.57c0.42,0.39,0.64,0.86,0.65,1.41c0.02,1.44-0.82,2.84-2.52,4.22c-1.7,1.38-3.86,2.09-6.5,2.17
				c-2.28,0.06-4.45-0.44-6.55-1.52c-2.09-1.08-4.05-2.81-5.87-5.2c-1.82-2.39-3.78-6.14-5.85-11.21c-1.95-4.79-3.46-8.07-4.49-9.83
				c-1.04-1.75-2.45-3.59-4.25-5.49c-1.25,5.92-1.85,8.88-3.03,14.81c-0.59,3-0.94,5.14-1.04,6.42c1.72,0.58,3.25,0.82,4.58,0.74
				c0.32-0.02,0.77-0.07,1.36-0.16c-0.15,0.73-0.22,1.1-0.37,1.83c-0.49,0.05-0.79,0.09-0.92,0.09c-0.81,0.05-1.97,0.04-3.47-0.02
				c-1.57-0.06-2.87-0.05-3.88,0.03c-2.03,0.15-5.23,0.78-9.56,1.93c0.03-0.7,0.04-1.04,0.07-1.74c2.3-0.66,3.9-1.42,4.79-2.3
				c0.89-0.88,1.55-2.2,1.98-3.97c1.01-3.98,2.28-9.93,3.89-17.87c1.39-6.78,2.1-10.17,3.57-16.94c-5.11,0.62-9.08,2.03-11.89,4.11
				c-2.16,1.6-3.18,3.27-3.03,5.02c0.05,0.62,0.43,1.39,1.14,2.29c0.64,0.81,0.99,1.48,1.04,2.01c0.05,0.65-0.15,1.23-0.62,1.77
				c-0.46,0.53-1.04,0.83-1.72,0.89c-0.78,0.07-1.51-0.24-2.2-0.93c-0.68-0.69-1.08-1.64-1.19-2.86c-0.3-3.32,1.2-6.48,4.55-9.44
				c3.35-2.96,9.51-4.81,18.42-5.33c1.01-0.06,1.52-0.09,2.53-0.14c-1.24,3.5-2.03,6.03-2.37,7.59c-0.98,4.43-1.45,6.65-2.39,11.08
				c1.84-0.79,3.96-2.06,6.39-3.82c2.43-1.75,4.77-3.59,7.03-5.52c4.15-3.55,6.55-5.66,7.12-6.4c0.17-0.25,0.26-0.45,0.25-0.62
				c-0.01-0.19-0.28-0.36-0.82-0.49c-0.54-0.14-2.04-0.19-4.51-0.14c0.17-0.81,0.25-1.22,0.42-2.03c3.34,0.15,6.08,0.21,8.21,0.15
				C476.28,581.72,478.8,581.51,481.66,581.16z"/>
			<path class="st14" d="M506.89,594.23c2.19,0.03,3.28,0.05,5.47,0.1c-1.55,5-2.31,7.5-3.81,12.51
				c-2.21,7.27-3.27,11.42-3.28,12.43c-0.01,0.46,0.1,0.81,0.32,1.05c0.22,0.24,0.46,0.37,0.74,0.37c0.42,0.01,0.92-0.17,1.49-0.52
				c0.82-0.54,2.39-1.91,4.72-4.09c0.48,0.54,0.72,0.82,1.2,1.36c-5.1,4.9-8.74,7.36-11.07,7.34c-0.79-0.01-1.45-0.31-2-0.9
				c-0.55-0.59-0.82-1.43-0.82-2.51c0.01-1.25,0.28-2.91,0.83-5c-2.22,2.44-4.94,4.58-8.15,6.44c-2.13,1.24-3.98,1.87-5.55,1.89
				c-0.86,0.01-1.54-0.25-2.04-0.8c-0.5-0.54-0.76-1.42-0.78-2.62c-0.02-0.94,0.07-1.95,0.28-3.03c0.29-1.52,1.06-4.57,2.33-9.16
				c1.61-5.81,2.43-9.29,2.42-10.44c-0.01-0.67-0.26-1.01-0.77-1c-0.46,0.01-1.08,0.23-1.86,0.69c-0.78,0.45-2.12,1.55-3.99,3.29
				c-0.68-0.49-1.02-0.74-1.7-1.23c3.34-2.95,5.93-4.87,7.73-5.79c1.79-0.92,3.25-1.38,4.35-1.38c0.61,0,1.12,0.21,1.5,0.63
				c0.39,0.42,0.58,1.07,0.58,1.96c0,1.66-0.93,5.74-2.69,12.23c-1.58,5.84-2.33,9.18-2.32,10c0,0.5,0.18,0.93,0.51,1.29
				c0.34,0.36,0.7,0.53,1.1,0.53c1.38-0.01,3.33-1.13,5.89-3.35c2.56-2.22,4.26-4.73,5.09-7.55
				C504.27,603.07,505.13,600.12,506.89,594.23z"/>
			<path class="st14" d="M528.54,600.21c2.15-2.04,4.26-3.51,6.32-4.4c2.06-0.89,3.86-1.29,5.39-1.2c1.79,0.1,3.18,0.87,4.17,2.28
				c0.99,1.41,1.38,3.47,1.2,6.17c-0.26,3.93-1.49,7.7-3.64,11.34c-2.15,3.64-4.67,6.36-7.57,8.18c-2.9,1.82-5.66,2.67-8.3,2.56
				c-2.26-0.09-4.04-0.81-5.35-2.15c-1.31-1.34-1.94-3.04-1.87-5.1c0.05-1.66,0.46-3.95,1.23-6.88c2.02-7.55,3.05-11.33,5.16-18.87
				c1.28-4.61,2.83-8.1,4.62-10.45c1.8-2.36,4.13-4.2,6.98-5.5c2.85-1.3,5.54-1.87,8.04-1.72c1.5,0.09,2.58,0.4,3.24,0.92
				c0.66,0.51,0.97,1.17,0.91,1.96c-0.05,0.72-0.4,1.3-1.06,1.73c-0.66,0.44-1.56,0.62-2.71,0.54c-0.86-0.06-2.35-0.32-4.44-0.81
				c-0.93-0.22-1.76-0.35-2.5-0.39c-1.31-0.07-2.42,0.53-3.28,1.77c-0.65,0.96-1.6,3.49-2.83,7.54
				C530.75,592.72,530.01,595.22,528.54,600.21z M536.16,598.38c-1.25-0.07-2.77,0.56-4.55,1.9c-1.78,1.33-3.51,3.76-5.16,7.28
				c-1.65,3.52-2.53,7.02-2.66,10.47c-0.05,1.29,0.34,2.4,1.15,3.3c0.82,0.91,1.79,1.39,2.92,1.44c2.73,0.12,5.26-1.86,7.65-5.95
				c2.39-4.09,3.73-8.21,3.97-12.38c0.11-1.89-0.22-3.46-0.99-4.71C537.96,598.89,537.18,598.44,536.16,598.38z"/>
			<path class="st14" d="M550.81,603.57c-0.63-0.54-0.95-0.81-1.58-1.34c2.72-2.45,5.19-4.15,7.38-5.09
				c2.19-0.94,4.04-1.34,5.52-1.21c0.82,0.07,1.43,0.3,1.83,0.67c0.4,0.37,0.58,0.85,0.53,1.42c-0.06,0.69-1.17,3.56-3.27,8.6
				c-3.43,8.25-5.14,13.26-5.29,15.01c-0.03,0.34,0.03,0.62,0.19,0.86c0.15,0.24,0.33,0.37,0.53,0.39c0.25,0.02,0.65-0.11,1.22-0.4
				c1.45-0.77,2.76-1.61,3.92-2.55c0.53-0.41,0.98-0.73,1.32-0.96c0.54,0.6,0.82,0.9,1.36,1.5c-3.27,2.37-5.21,3.77-5.89,4.17
				c-1.49,0.88-2.85,1.5-4.09,1.86c-0.63,0.19-1.24,0.26-1.83,0.22c-0.88-0.07-1.56-0.38-2.02-0.93c-0.46-0.55-0.66-1.31-0.59-2.26
				c0.13-1.72,0.84-4.37,2.1-7.93c2.23-6.28,3.98-10.82,5.23-13.56c0.25-0.56,0.39-1.04,0.43-1.45c0.04-0.48-0.17-0.74-0.63-0.77
				c-0.51-0.04-1.1,0.1-1.78,0.43C554.73,600.57,553.19,601.67,550.81,603.57z M568.34,581.82c2.97,0.28,4.45,0.43,7.42,0.74
				c-5.73,3.6-8.56,5.43-14.14,9.13c-0.91-0.08-1.36-0.12-2.28-0.19C562.9,587.6,564.7,585.67,568.34,581.82z"/>
			<path class="st14" d="M571.74,627.44c-2.19-0.23-3.28-0.34-5.47-0.56c2.69-7.62,4.06-11.43,6.85-19.02
				c3.4-9.43,5.67-15.21,6.68-17.37c1.01-2.16,2.13-3.91,3.38-5.24c1.24-1.33,2.75-2.48,4.51-3.43c1.77-0.95,3.64-1.61,5.61-1.98
				c1.97-0.37,3.68-0.45,5.12-0.26c1.36,0.18,2.34,0.56,2.94,1.13c0.6,0.57,0.85,1.24,0.74,2.03c-0.09,0.67-0.47,1.19-1.13,1.59
				c-0.66,0.39-1.45,0.53-2.36,0.41c-1.14-0.15-2.84-0.56-5.11-1.22c-0.74-0.24-1.39-0.39-1.96-0.47c-0.81-0.1-1.6,0.07-2.38,0.51
				s-1.53,1.3-2.25,2.58c-0.72,1.28-1.84,3.99-3.33,8.13c-1.64,4.43-2.45,6.65-4.05,11.09c2.72-2.32,5.49-4.04,8.28-5.11
				c2.1-0.81,4.08-1.08,5.89-0.85c1.27,0.17,2.29,0.76,3.05,1.77s1.04,2.19,0.85,3.55c-0.35,2.54-2.06,4.62-5.11,6.25
				c-3.04,1.63-7.41,2.16-13.12,1.66c1.83,1.03,3.26,2.1,4.29,3.21c1.03,1.1,1.99,2.58,2.88,4.42c0.89,1.84,1.95,4.88,3.13,9.1
				c1.41,5.02,2.84,8.45,4.32,10.26c1.47,1.79,3.2,2.85,5.22,3.15c1.17,0.17,2.18,0.06,3.03-0.33c0.84-0.39,1.31-0.85,1.39-1.37
				c0.05-0.33,0-0.8-0.15-1.41c-0.17-0.66-0.23-1.2-0.16-1.63c0.08-0.55,0.38-1,0.88-1.36c0.5-0.36,1.04-0.5,1.62-0.41
				c0.68,0.1,1.22,0.46,1.62,1.07c0.4,0.61,0.53,1.35,0.39,2.23c-0.27,1.71-1.31,3.1-3.09,4.18c-1.79,1.08-3.94,1.43-6.48,1.06
				c-2.61-0.38-4.85-1.36-6.73-2.95s-3.55-3.94-5-7.05c-0.83-1.8-2.16-5.83-4.09-12.09c-0.9-2.96-1.77-5.2-2.6-6.73
				c-0.64-1.18-1.58-2.39-2.81-3.62C574.88,618.4,573.82,621.41,571.74,627.44z M577.54,610.91c3.36,0.4,6.12,0.41,8.28,0.02
				c2.16-0.39,3.76-1.06,4.78-2.01c1.03-0.96,1.62-2.06,1.79-3.33c0.12-0.9-0.05-1.66-0.49-2.28c-0.45-0.61-1.04-0.97-1.77-1.06
				c-2.38-0.3-6.36,1.74-11.78,6.19C578.03,609.43,577.86,609.92,577.54,610.91z"/>
			<path class="st14" d="M628.97,605.95c2.16,0.39,3.24,0.59,5.4,0.99c-2.35,4.68-3.52,7.02-5.82,11.71
				c-3.38,6.81-5.11,10.73-5.28,11.72c-0.08,0.45-0.03,0.81,0.15,1.09c0.18,0.28,0.4,0.44,0.67,0.49c0.41,0.07,0.93-0.02,1.56-0.27
				c0.9-0.4,2.68-1.49,5.35-3.26c0.39,0.62,0.58,0.92,0.96,1.54c-5.86,3.99-9.87,5.83-12.17,5.43c-0.78-0.14-1.39-0.54-1.84-1.21
				c-0.45-0.67-0.58-1.54-0.4-2.61c0.21-1.23,0.75-2.83,1.64-4.8c-2.6,2.04-5.64,3.7-9.12,5.02c-2.31,0.87-4.24,1.19-5.8,0.95
				c-0.85-0.13-1.48-0.5-1.88-1.12c-0.41-0.62-0.52-1.52-0.34-2.71c0.14-0.93,0.39-1.91,0.78-2.95c0.54-1.45,1.8-4.34,3.8-8.65
				c2.54-5.47,3.92-8.77,4.1-9.91c0.1-0.66-0.1-1.04-0.6-1.11c-0.45-0.07-1.11,0.05-1.96,0.37c-0.85,0.32-2.35,1.18-4.48,2.59
				c-0.59-0.6-0.89-0.89-1.48-1.49c3.79-2.36,6.66-3.84,8.59-4.45c1.92-0.61,3.44-0.83,4.53-0.65c0.61,0.1,1.07,0.39,1.38,0.86
				c0.31,0.48,0.4,1.15,0.25,2.03c-0.27,1.64-1.86,5.51-4.66,11.62c-2.52,5.5-3.81,8.68-3.93,9.49c-0.08,0.5,0.02,0.95,0.3,1.36
				c0.27,0.41,0.61,0.64,1,0.71c1.37,0.22,3.48-0.57,6.38-2.33c2.89-1.77,4.99-3.96,6.27-6.62
				C624.94,614.24,626.27,611.48,628.97,605.95z M628.63,588.82c1.86,0.33,3.35,1.22,4.44,2.68c1.09,1.46,1.48,3.03,1.16,4.73
				s-1.24,3.04-2.76,4.01c-1.52,0.98-3.19,1.31-5.03,0.98c-1.86-0.33-3.33-1.2-4.43-2.64c-1.1-1.44-1.51-3.01-1.22-4.71
				c0.28-1.7,1.18-3.06,2.71-4.05C625.03,588.82,626.74,588.49,628.63,588.82z M628.18,591.3c-1.1-0.19-2.12,0.01-3.04,0.6
				c-0.92,0.59-1.46,1.4-1.64,2.41c-0.18,1.04,0.07,1.99,0.73,2.85c0.66,0.86,1.54,1.39,2.63,1.58c1.12,0.2,2.13,0,3.04-0.59
				c0.91-0.59,1.45-1.4,1.64-2.43c0.18-1.01-0.05-1.95-0.7-2.82C630.2,592.03,629.31,591.49,628.18,591.3z"/>
		</g>
	</g>
</g>
</svg>
